<svg width="18" height="18" viewBox="0 0 18 18" fill="none" xmlns="http://www.w3.org/2000/svg">
<path d="M1.98135 8.78542C1.19133 7.40788 0.809873 6.28302 0.579864 5.1428C0.239685 3.45644 1.01818 1.80913 2.30782 0.758017C2.85287 0.313775 3.47769 0.465554 3.8 1.04379L4.52765 2.34921C5.10441 3.38393 5.39279 3.90128 5.33559 4.44978C5.27839 4.99828 4.88947 5.44501 4.11164 6.33846L1.98135 8.78542ZM1.98135 8.78542C3.58042 11.5737 6.08986 14.0845 8.88137 15.6854M8.88137 15.6854C10.2589 16.4755 11.3838 16.8569 12.524 17.0869C14.2103 17.4271 15.8577 16.6486 16.9088 15.359C17.353 14.8139 17.2012 14.1891 16.623 13.8668L15.3176 13.1391C14.2829 12.5624 13.7655 12.274 13.217 12.3312C12.6685 12.3884 12.2218 12.7773 11.3283 13.5551L8.88137 15.6854Z" stroke="#444444" stroke-linejoin="round"/>
</svg>
