<svg width="80" height="80" viewBox="0 0 80 80" fill="none" xmlns="http://www.w3.org/2000/svg">
<rect width="80" height="80" rx="12" fill="white"/>
<path d="M52 57C53.7775 56.6007 55.1276 55.9444 56.2175 54.8654C59 52.1107 59 47.6772 59 38.81C59 29.9429 59 25.5093 56.2175 22.7547C53.435 20 48.9567 20 40 20C31.0433 20 26.565 20 23.7825 22.7547C21 25.5093 21 29.9429 21 38.81C21 47.6772 21 52.1107 23.7825 54.8654C24.8724 55.9444 26.2225 56.6007 28 57" stroke="#312A2F" stroke-width="2" stroke-linecap="round"/>
<path d="M21 33L59 33" stroke="#312A2F" stroke-width="2" stroke-linejoin="round"/>
<path d="M29.9996 27H30.0176" stroke="#312A2F" stroke-width="2.5" stroke-linecap="round" stroke-linejoin="round"/>
<path d="M37.9996 27H38.0176" stroke="#312A2F" stroke-width="2.5" stroke-linecap="round" stroke-linejoin="round"/>
<path d="M39.9983 42C37.1488 42 35.3012 43.8171 33.1161 44.4794C32.2277 44.7487 31.7834 44.8834 31.6037 45.0732C31.4239 45.263 31.3712 45.5404 31.2659 46.0951C30.1393 52.0314 32.6019 57.5196 38.475 59.6557C39.106 59.8852 39.4216 60 40.0014 60C40.5812 60 40.8967 59.8852 41.5277 59.6557C47.4005 57.5196 49.8608 52.0314 48.7338 46.0951C48.6284 45.5403 48.5758 45.2629 48.3959 45.073C48.2161 44.8832 47.7719 44.7486 46.8835 44.4795C44.6976 43.8172 42.8479 42 39.9983 42Z" stroke="#312A2F" stroke-width="2" stroke-linecap="round" stroke-linejoin="round"/>
</svg>
