<svg width="30" height="30" viewBox="0 0 30 30" fill="none" xmlns="http://www.w3.org/2000/svg">
<path d="M8.75 12.1429V13.75M8.75 12.1429C7.30402 12.1429 6.03008 11.4326 5.2829 10.3541M8.75 12.1429C10.196 12.1429 11.4699 11.4326 12.2171 10.3541M8.75 4.10714C10.1961 4.10714 11.4701 4.81751 12.2173 5.89609M8.75 4.10714C7.30392 4.10714 6.02989 4.81751 5.28273 5.89609M8.75 4.10714V2.5M13.75 4.91071L12.2173 5.89609M3.75053 11.3393L5.2829 10.3541M3.75 4.91071L5.28273 5.89609M13.7495 11.3393L12.2171 10.3541M12.2173 5.89609C12.6591 6.53389 12.9167 7.30044 12.9167 8.125C12.9167 8.94966 12.659 9.7163 12.2171 10.3541M5.28273 5.89609C4.84092 6.53389 4.58333 7.30044 4.58333 8.125C4.58333 8.94966 4.84098 9.7163 5.2829 10.3541" stroke="#605B5E" stroke-linecap="round"/>
<path d="M16.25 2.5H16.5909C20.6674 2.5 22.7057 2.5 24.1212 3.49729C24.5267 3.78304 24.8868 4.12191 25.1904 4.50361C26.25 5.83584 26.25 7.7542 26.25 11.5909V14.7727C26.25 18.4767 26.25 20.3287 25.6638 21.8078C24.7215 24.1857 22.7286 26.0614 20.202 26.9483C18.6305 27.5 16.6627 27.5 12.7273 27.5C10.4784 27.5 9.35402 27.5 8.45597 27.1847C7.01224 26.6779 5.87344 25.6061 5.33495 24.2473C5 23.4021 5 22.3438 5 20.2273V16.25" stroke="#605B5E" stroke-linecap="round" stroke-linejoin="round"/>
<path d="M26.25 15C26.25 17.3012 24.3845 19.1667 22.0833 19.1667C21.2511 19.1667 20.27 19.0208 19.4608 19.2377C18.7419 19.4303 18.1803 19.9919 17.9877 20.7108C17.7708 21.52 17.9167 22.5011 17.9167 23.3333C17.9167 25.6345 16.0512 27.5 13.75 27.5" stroke="#605B5E" stroke-linecap="round" stroke-linejoin="round"/>
</svg>
