<svg width="18" height="16" viewBox="0 0 18 16" fill="none" xmlns="http://www.w3.org/2000/svg">
<path d="M4.79297 4.79163L7.24465 6.24115C8.67398 7.08623 9.24529 7.08623 10.6746 6.24115L13.1263 4.79163" stroke="#444444" stroke-linecap="round" stroke-linejoin="round"/>
<path d="M0.638138 8.93802C0.692617 11.4926 0.719857 12.7699 1.66246 13.7161C2.60507 14.6623 3.91694 14.6953 6.54069 14.7612C8.15776 14.8018 9.75891 14.8018 11.376 14.7612C13.9997 14.6953 15.3116 14.6623 16.2542 13.7161C17.1968 12.7699 17.2241 11.4926 17.2785 8.93802C17.296 8.11662 17.296 7.30006 17.2785 6.47866C17.2241 3.92405 17.1968 2.64674 16.2542 1.70055C15.3116 0.754359 13.9997 0.721397 11.376 0.655474C9.75891 0.614844 8.15776 0.614842 6.54069 0.655469C3.91694 0.721386 2.60507 0.754345 1.66246 1.70054C0.719853 2.64673 0.692614 3.92404 0.638137 6.47865C0.620621 7.30005 0.620621 8.11661 0.638138 8.93802Z" stroke="#444444" stroke-width="1.25" stroke-linejoin="round"/>
</svg>
