<svg width="20" height="20" viewBox="0 0 20 20" fill="none" xmlns="http://www.w3.org/2000/svg">
<path d="M12.9154 9.16667C12.9154 10.7775 11.6095 12.0833 9.9987 12.0833C8.38787 12.0833 7.08203 10.7775 7.08203 9.16667C7.08203 7.55584 8.38787 6.25 9.9987 6.25C11.6095 6.25 12.9154 7.55584 12.9154 9.16667Z" stroke="#444444"/>
<path d="M10 1.66663C14.0588 1.66663 17.5 5.02744 17.5 9.10476C17.5 13.247 14.0028 16.1539 10.7725 18.1305C10.5371 18.2634 10.2709 18.3333 10 18.3333C9.72913 18.3333 9.46291 18.2634 9.2275 18.1305C6.00325 16.1346 2.5 13.2613 2.5 9.10476C2.5 5.02744 5.9412 1.66663 10 1.66663Z" stroke="#444444"/>
</svg>
