<svg width="24" height="24" viewBox="0 0 24 24" fill="none" xmlns="http://www.w3.org/2000/svg">
<path d="M10.5 1.75H13.5C14.335 1.75 15.0158 2.04124 15.4873 2.5127C15.9588 2.98415 16.25 3.66505 16.25 4.5V8C16.25 8.13386 16.1339 8.25 16 8.25C15.8661 8.25 15.75 8.13386 15.75 8V4.5C15.75 3.8555 15.5482 3.28064 15.1338 2.86621C14.7194 2.45178 14.1445 2.25 13.5 2.25H10.5C9.8555 2.25 9.28064 2.45178 8.86621 2.86621C8.45178 3.28064 8.25 3.8555 8.25 4.5V8C8.25 8.13386 8.13386 8.25 8 8.25C7.86614 8.25 7.75 8.13386 7.75 8V4.5C7.75 3.66505 8.04124 2.98415 8.5127 2.5127C8.98415 2.04124 9.66505 1.75 10.5 1.75Z" fill="#EC5F00" stroke="#EC5F00"/>
<path d="M8.40039 7H15.6006C17.2337 7 17.9904 7.38258 18.3936 7.86035C18.8231 8.36962 18.9616 9.09942 19.084 10.0879V10.0889L19.7627 15.7695H19.7637C19.7641 15.7738 19.763 15.7765 19.7627 15.7773C19.7623 15.7784 19.7614 15.7796 19.7607 15.7803H8.00098C7.31919 15.7803 6.75098 16.3298 6.75098 17.0303C6.75113 17.7163 7.31493 18.2803 8.00098 18.2803H20.0312L20.0283 18.625C19.9971 19.449 19.7829 20.1099 19.3477 20.5811C18.8551 21.1142 17.9912 21.4999 16.4912 21.5H7.51074C5.84659 21.5 4.96307 21.027 4.49902 20.3926C4.01772 19.7346 3.88807 18.7728 4.02734 17.5898L4.92773 10.0898V10.0889C5.04506 9.09929 5.18085 8.36846 5.60938 7.85938C6.01107 7.38219 6.76732 7.00007 8.40039 7Z" fill="#EC5F00" stroke="#EC5F00"/>
</svg>
