<svg width="415" height="376" viewBox="0 0 415 376" fill="none" xmlns="http://www.w3.org/2000/svg">
<g filter="url(#filter0_d_10583_15713)">
<path d="M17.0862 36.0616C18.0202 27.1751 25.9813 20.7284 34.8678 21.6624L378.132 57.7409C387.018 58.6749 393.465 66.636 392.531 75.5225L354.382 438.487C353.448 447.374 345.487 453.82 336.6 452.886L-6.66363 416.808C-15.5502 415.874 -21.9969 407.913 -21.0629 399.026L17.0862 36.0616Z" fill="white" shape-rendering="crispEdges"/>
<path d="M34.8322 21.9974L378.097 58.0759C386.798 58.9906 393.11 66.7857 392.196 75.4869L354.047 438.451C353.132 447.153 345.337 453.466 336.636 452.552L-6.62884 416.473C-15.33 415.558 -21.6424 407.762 -20.7278 399.061L17.4213 36.0965C18.336 27.3954 26.1311 21.0831 34.8322 21.9974Z" stroke="#F2F2F2" stroke-width="0.67413" shape-rendering="crispEdges"/>
<path d="M41.6755 61.4229C40.7637 61.327 39.9874 61.0773 39.3465 60.6738C38.7164 60.2713 38.2392 59.7548 37.9151 59.1243C37.5909 58.4937 37.4378 57.7835 37.4557 56.9936L39.2536 57.0687C39.2723 57.613 39.38 58.0852 39.5765 58.4855C39.7742 58.875 40.0613 59.1872 40.4379 59.422C40.8264 59.6472 41.3049 59.7896 41.8734 59.8494C42.3668 59.9013 42.7914 59.8862 43.147 59.8043C43.5146 59.7128 43.8025 59.5533 44.0108 59.3257C44.2191 59.0981 44.3418 58.8074 44.379 58.4534C44.4128 58.1316 44.3623 57.8389 44.2273 57.5752C44.1042 57.302 43.8334 57.0404 43.415 56.7903C43.0085 56.5307 42.3976 56.255 41.5823 55.9632C40.6942 55.6421 39.9907 55.3187 39.4718 54.9931C38.9529 54.6674 38.591 54.2931 38.3859 53.8703C38.1928 53.4379 38.1272 52.9267 38.1892 52.3367C38.258 51.6823 38.4739 51.1248 38.8368 50.664C39.2116 50.1937 39.7087 49.8501 40.328 49.6332C40.9473 49.4163 41.6699 49.3513 42.4959 49.4381C43.3648 49.5294 44.088 49.7681 44.6656 50.1542C45.254 50.5414 45.6958 51.0325 45.9912 51.6275C46.2973 52.2236 46.4555 52.8856 46.4657 53.6133L44.6695 53.5221C44.6621 53.0767 44.5686 52.6764 44.3891 52.3213C44.2106 51.9555 43.9486 51.6622 43.603 51.4416C43.2586 51.2101 42.8236 51.0668 42.298 51.0116C41.6329 50.9417 41.0909 51.042 40.6721 51.3124C40.265 51.5733 40.035 51.9559 39.982 52.46C39.9482 52.7819 39.9946 53.0633 40.1211 53.3043C40.2594 53.5358 40.5186 53.7528 40.8986 53.9554C41.2893 54.1592 41.8451 54.3911 42.5661 54.6513C43.5293 54.9803 44.2831 55.3415 44.8274 55.7349C45.3836 56.1187 45.7619 56.5435 45.9624 57.0092C46.1629 57.475 46.2338 57.9868 46.1752 58.5446C46.1042 59.2204 45.8652 59.7917 45.4582 60.2587C45.0631 60.7161 44.5403 61.0461 43.89 61.2489C43.2396 61.4517 42.5014 61.5097 41.6755 61.4229ZM50.1154 62.2449C49.2251 62.1513 48.5331 61.8725 48.0396 61.4085C47.5569 60.9456 47.3544 60.3441 47.4322 59.604C47.51 58.8638 47.7902 58.313 48.2728 57.9516C48.7673 57.5806 49.4908 57.353 50.4432 57.2687L53.447 57.015C53.5169 56.35 53.4132 55.8402 53.1359 55.4857C52.8598 55.1204 52.416 54.9057 51.8046 54.8414C51.2575 54.7839 50.8154 54.8622 50.4784 55.0762C50.1425 55.2795 49.8908 55.6109 49.7232 56.0705L47.9812 55.7736C48.2323 54.9323 48.7002 54.2982 49.385 53.8713C50.0804 53.4455 50.9377 53.2862 51.9568 53.3933C53.1153 53.515 53.9622 53.9186 54.4975 54.6039C55.0447 55.2796 55.2597 56.1752 55.1424 57.2908L54.7923 60.6216C54.7709 60.8254 54.7879 60.9736 54.8432 61.0662C54.9104 61.1491 55.0245 61.1991 55.1854 61.216L55.4911 61.2481L55.349 62.5997C55.2943 62.6048 55.2073 62.6065 55.0882 62.6049C54.9691 62.6032 54.8451 62.5956 54.7164 62.5821C54.3517 62.5437 54.0415 62.4515 53.7857 62.3053C53.5406 62.1602 53.3678 61.9468 53.2673 61.6651C53.1679 61.3727 53.1424 60.9959 53.1909 60.5346L53.3595 60.6337C53.2342 61.0001 53.0115 61.3129 52.6914 61.5721C52.3821 61.8324 51.9985 62.0252 51.5406 62.1507C51.0947 62.2665 50.6196 62.2979 50.1154 62.2449ZM50.531 60.922C51.0459 60.9761 51.4959 60.9258 51.8809 60.7711C52.267 60.6056 52.5806 60.3566 52.8216 60.024C53.0626 59.6914 53.2068 59.2999 53.2542 58.8493L53.3117 58.3023L50.7508 58.5212C50.2258 58.5636 49.8447 58.6808 49.6076 58.8728C49.3824 59.0552 49.2529 59.3073 49.219 59.6291C49.1807 59.9938 49.2742 60.291 49.4995 60.5208C49.7366 60.7409 50.0805 60.8747 50.531 60.922ZM58.2238 62.9019C57.666 62.8433 57.2307 62.6511 56.9179 62.3254C56.6051 61.9997 56.4819 61.5204 56.5484 60.8875L57.5581 51.2815L59.2636 51.4607L58.2709 60.9058C58.2506 61.0989 58.2837 61.2488 58.3701 61.3555C58.4672 61.4633 58.6123 61.5274 58.8054 61.5477L59.4812 61.6187L59.3341 63.0186L58.2238 62.9019ZM63.9702 63.7011C63.1335 63.6131 62.4286 63.3547 61.8555 62.9257C61.2931 62.4978 60.8812 61.9285 60.6197 61.2178C60.3689 60.5082 60.2908 59.7028 60.3855 58.8017C60.4803 57.9007 60.7235 57.1345 61.1152 56.5033C61.5187 55.8624 62.04 55.3912 62.6791 55.0896C63.3193 54.7773 64.047 54.664 64.8622 54.7497C65.6346 54.8309 66.2966 55.0848 66.8482 55.5115C67.401 55.9275 67.8028 56.4904 68.0536 57.2C68.3151 57.9107 68.3956 58.7435 68.2953 59.6982L68.2496 60.1326L62.1031 59.4866C62.058 60.3278 62.212 60.9784 62.5649 61.4385C62.9286 61.8997 63.4537 62.1664 64.1402 62.2385C64.6444 62.2915 65.0751 62.2175 65.4325 62.0165C65.7898 61.8154 66.0537 61.5232 66.2241 61.1398L67.9822 61.4385C67.6735 62.2086 67.1607 62.8055 66.4438 63.229C65.7387 63.6429 64.9142 63.8003 63.9702 63.7011ZM62.2384 58.1993L66.5828 58.656C66.6092 57.8887 66.4485 57.3024 66.1007 56.8971C65.7636 56.4929 65.3 56.2598 64.71 56.1978C64.0986 56.1336 63.5741 56.2737 63.1366 56.6181C62.711 56.953 62.4116 57.4801 62.2384 58.1993ZM72.5369 64.6015C71.7324 64.5169 71.0642 64.322 70.5323 64.0166C70.0111 63.7124 69.6229 63.33 69.3677 62.8693C69.1136 62.3979 68.9949 61.8757 69.0118 61.3027L70.7741 61.4066C70.8103 61.8876 70.9746 62.2844 71.2671 62.5972C71.5596 62.9099 72.033 63.1006 72.6874 63.1694C73.2237 63.2258 73.6565 63.1845 73.9856 63.0456C74.3147 62.9066 74.499 62.6494 74.5385 62.274C74.5599 62.0702 74.5243 61.8929 74.4317 61.7422C74.3509 61.5819 74.1708 61.4382 73.8913 61.3112C73.613 61.1735 73.1946 61.0265 72.6362 60.8702C71.8057 60.6202 71.1604 60.3626 70.7002 60.0973C70.24 59.8321 69.9255 59.5225 69.7567 59.1685C69.5878 58.8145 69.5282 58.4016 69.5778 57.9296C69.6601 57.1465 70.0168 56.5387 70.6479 56.1061C71.2898 55.6747 72.1631 55.517 73.268 55.6332C74.0082 55.711 74.6168 55.9051 75.0939 56.2155C75.5721 56.5152 75.9282 56.8943 76.162 57.3527C76.4076 57.8015 76.5404 58.2926 76.5602 58.8261L74.7962 58.7383C74.7741 58.4324 74.6939 58.1636 74.5556 57.9322C74.4291 57.6911 74.2433 57.4981 73.9983 57.353C73.7543 57.1972 73.4554 57.1007 73.1014 57.0635C72.5543 57.006 72.1354 57.0705 71.8447 57.2568C71.554 57.4432 71.3906 57.708 71.3545 58.0512C71.3274 58.3087 71.3644 58.5241 71.4655 58.6974C71.5773 58.8718 71.7671 59.0273 72.0347 59.1639C72.3034 59.2898 72.6645 59.4145 73.1179 59.538C73.9924 59.7818 74.67 60.0428 75.1504 60.3211C75.6321 60.5886 75.9579 60.894 76.1279 61.2372C76.2978 61.5804 76.3586 61.9827 76.3101 62.4439C76.2538 62.9803 76.0557 63.4204 75.7158 63.7643C75.376 64.1082 74.9326 64.3544 74.3855 64.5029C73.8396 64.6408 73.2234 64.6736 72.5369 64.6015ZM80.9634 67.7322L82.1168 56.7584L83.7259 56.9276L83.5814 58.7669L83.3984 58.6501C83.6795 58.0398 84.0836 57.5996 84.6109 57.3297C85.1393 57.049 85.7253 56.9425 86.3689 57.0101C87.2056 57.0981 87.8702 57.3794 88.3626 57.8541C88.8668 58.3193 89.2121 58.9033 89.3985 59.6061C89.5957 60.3101 89.652 61.0644 89.5674 61.8689C89.4829 62.6734 89.271 63.3995 88.9318 64.0471C88.6033 64.6958 88.1435 65.2006 87.5525 65.5615C86.9733 65.9127 86.2653 66.0444 85.4286 65.9564C84.9996 65.9114 84.6052 65.794 84.2455 65.6043C83.8859 65.4147 83.586 65.1717 83.346 64.8753C83.1179 64.5694 82.9699 64.223 82.9021 63.8363L83.1155 63.6635L82.669 67.9114L80.9634 67.7322ZM85.2785 64.444C85.965 64.5161 86.529 64.3097 86.9704 63.8247C87.4226 63.3408 87.6982 62.6268 87.7975 61.6829C87.8967 60.7389 87.7755 59.9832 87.4338 59.4159C87.1029 58.8497 86.5941 58.5305 85.9076 58.4583C85.4571 58.411 85.0537 58.4825 84.6975 58.6728C84.3424 58.8524 84.05 59.1578 83.8203 59.5892C83.5906 60.0206 83.4413 60.5634 83.3726 61.2178C83.3038 61.8721 83.3315 62.4336 83.4558 62.9022C83.5908 63.3719 83.8128 63.7368 84.1216 63.997C84.4423 64.2477 84.828 64.3966 85.2785 64.444ZM94.0311 66.8606C93.1944 66.7727 92.4895 66.5142 91.9164 66.0852C91.354 65.6574 90.9421 65.0881 90.6806 64.3773C90.4298 63.6677 90.3518 62.8623 90.4465 61.9613C90.5412 61.0602 90.7844 60.294 91.1761 59.6628C91.5797 59.0219 92.101 58.5507 92.74 58.2492C93.3802 57.9368 94.1079 57.8235 94.9232 57.9092C95.6955 57.9904 96.3575 58.2444 96.9092 58.6711C97.4619 59.0871 97.8637 59.6499 98.1145 60.3595C98.376 61.0703 98.4566 61.903 98.3562 62.8577L98.3106 63.2921L92.164 62.6461C92.119 63.4873 92.2729 64.138 92.6258 64.598C92.9895 65.0592 93.5146 65.3259 94.2011 65.3981C94.7053 65.4511 95.136 65.377 95.4934 65.176C95.8507 64.9749 96.1146 64.6827 96.2851 64.2994L98.0432 64.598C97.7345 65.3682 97.2217 65.965 96.5047 66.3885C95.7996 66.8025 94.9751 66.9598 94.0311 66.8606ZM92.2993 61.3589L96.6437 61.8155C96.6701 61.0482 96.5094 60.462 96.1616 60.0566C95.8245 59.6525 95.3609 59.4194 94.771 59.3574C94.1595 59.2931 93.6351 59.4332 93.1976 59.7777C92.7719 60.1125 92.4725 60.6396 92.2993 61.3589ZM99.3196 67.2212L100.219 58.6611L101.78 58.8251L101.606 61.1007L101.466 61.0372C101.665 60.2772 101.961 59.7389 102.352 59.4221C102.754 59.1064 103.26 58.9807 103.872 59.045L104.692 59.1312L104.532 60.6598L103.711 60.5736C103.282 60.5285 102.915 60.5604 102.611 60.6694C102.307 60.7785 102.064 60.9699 101.884 61.2437C101.714 61.5187 101.605 61.8868 101.556 62.3481L101.025 67.4005L99.3196 67.2212ZM105.492 67.87L106.449 58.7628C106.524 58.0548 106.781 57.5125 107.222 57.1358C107.663 56.7592 108.307 56.6154 109.155 56.7045L110.667 56.8634L110.52 58.2633L109.233 58.128C108.9 58.0931 108.644 58.1583 108.464 58.3238C108.285 58.4785 108.178 58.7168 108.145 59.0386L107.198 68.0492L105.492 67.87ZM105.044 60.6811L105.189 59.2973L110.226 59.8267L110.08 61.2104L105.044 60.6811ZM113.76 68.9342C112.945 68.8485 112.251 68.5912 111.678 68.1622C111.105 67.7332 110.687 67.1634 110.426 66.4526C110.164 65.7419 110.081 64.936 110.176 64.0349C110.271 63.1231 110.521 62.3521 110.923 61.722C111.325 61.0919 111.852 60.6266 112.501 60.3261C113.152 60.015 113.885 59.9022 114.701 59.9879C115.516 60.0736 116.209 60.3363 116.781 60.776C117.354 61.205 117.772 61.7695 118.035 62.4695C118.298 63.1695 118.381 63.9754 118.285 64.8872C118.19 65.7883 117.941 66.5593 117.538 67.2001C117.134 67.841 116.608 68.3116 115.958 68.6121C115.308 68.9125 114.575 69.0199 113.76 68.9342ZM113.916 67.4539C114.645 67.5306 115.236 67.3269 115.688 66.843C116.141 66.3484 116.417 65.6345 116.515 64.7012C116.613 63.768 116.492 63.0177 116.15 62.4503C115.809 61.8723 115.274 61.5449 114.545 61.4682C113.826 61.3927 113.235 61.6017 112.771 62.0952C112.319 62.5791 112.044 63.2877 111.946 64.2209C111.847 65.1542 111.969 65.9098 112.309 66.4879C112.662 67.0564 113.197 67.3784 113.916 67.4539ZM119.237 69.3147L120.137 60.7545L121.698 60.9186L121.524 63.1941L121.384 63.1306C121.583 62.3706 121.878 61.8323 122.269 61.5155C122.671 61.1998 123.178 61.0741 123.789 61.1384L124.61 61.2247L124.449 62.7533L123.629 62.667C123.2 62.6219 122.833 62.6539 122.529 62.7629C122.224 62.8719 121.982 63.0633 121.801 63.3372C121.631 63.6121 121.522 63.9802 121.474 64.4415L120.943 69.4939L119.237 69.3147ZM124.666 69.8853L125.566 61.3252L127.127 61.4892L126.952 63.6182L126.766 63.5336C126.912 63.0717 127.12 62.6869 127.391 62.3792C127.673 62.0726 128 61.8467 128.374 61.7016C128.747 61.5564 129.142 61.5058 129.561 61.5498C130.29 61.6265 130.864 61.8982 131.281 62.365C131.699 62.8211 131.93 63.4148 131.972 64.1459L131.699 64.1171C131.848 63.6231 132.053 63.2217 132.313 62.9128C132.585 62.5943 132.913 62.3631 133.297 62.2191C133.681 62.075 134.104 62.0273 134.565 62.0757C135.166 62.1389 135.662 62.3212 136.053 62.6226C136.456 62.9144 136.74 63.3129 136.903 63.8182C137.078 64.3246 137.129 64.9264 137.055 65.6237L136.477 71.1266L134.771 70.9474L135.306 65.8628C135.384 65.1226 135.308 64.5507 135.079 64.1471C134.851 63.7434 134.463 63.5129 133.916 63.4554C133.562 63.4182 133.241 63.4766 132.954 63.6308C132.666 63.785 132.43 64.0258 132.243 64.3533C132.068 64.6819 131.955 65.0876 131.904 65.5703L131.376 70.5905L129.751 70.4197L130.279 65.3995C130.355 64.67 130.291 64.0939 130.086 63.6711C129.893 63.2386 129.507 62.992 128.928 62.9311C128.563 62.8928 128.237 62.9507 127.95 63.1049C127.673 63.2602 127.441 63.5069 127.254 63.8451C127.067 64.1726 126.949 64.5723 126.9 65.0443L126.372 70.0646L124.666 69.8853ZM140.785 71.7747C139.895 71.6811 139.203 71.4023 138.71 70.9383C138.227 70.4754 138.024 69.8739 138.102 69.1338C138.18 68.3936 138.46 67.8428 138.943 67.4814C139.437 67.1104 140.161 66.8828 141.113 66.7985L144.117 66.5448C144.187 65.8798 144.083 65.37 143.806 65.0155C143.53 64.6502 143.086 64.4355 142.474 64.3712C141.927 64.3137 141.485 64.392 141.148 64.606C140.812 64.8093 140.561 65.1407 140.393 65.6003L138.651 65.3033C138.902 64.4621 139.37 63.828 140.055 63.4011C140.75 62.9753 141.608 62.816 142.627 62.9231C143.785 63.0448 144.632 63.4484 145.167 64.1337C145.715 64.8094 145.93 65.705 145.812 66.8206L145.462 70.1514C145.441 70.3552 145.458 70.5034 145.513 70.596C145.58 70.6789 145.694 70.7289 145.855 70.7458L146.161 70.7779L146.019 72.1295C145.964 72.1346 145.877 72.1363 145.758 72.1347C145.639 72.133 145.515 72.1254 145.386 72.1118C145.022 72.0735 144.711 71.9813 144.456 71.8351C144.211 71.69 144.038 71.4766 143.937 71.1949C143.838 70.9025 143.812 70.5257 143.861 70.0644L144.029 70.1634C143.904 70.5299 143.681 70.8427 143.361 71.1019C143.052 71.3622 142.668 71.555 142.211 71.6804C141.765 71.7963 141.289 71.8277 140.785 71.7747ZM141.201 70.4518C141.716 70.5059 142.166 70.4556 142.551 70.3009C142.937 70.1354 143.251 69.8864 143.492 69.5538C143.733 69.2212 143.877 68.8297 143.924 68.3791L143.982 67.8321L141.421 68.051C140.896 68.0934 140.515 68.2106 140.278 68.4026C140.052 68.585 139.923 68.8371 139.889 69.1589C139.851 69.5236 139.944 69.8208 140.169 70.0506C140.407 70.2707 140.75 70.4045 141.201 70.4518ZM147.137 72.2471L148.037 63.6869L149.598 63.851L149.422 66.1426L149.225 66.008C149.38 65.4603 149.609 65.0289 149.914 64.7139C150.218 64.3988 150.572 64.1811 150.975 64.0608C151.379 63.9297 151.806 63.8879 152.257 63.9352C152.9 64.0029 153.416 64.2035 153.804 64.5371C154.204 64.8611 154.485 65.2811 154.648 65.7971C154.822 66.3035 154.877 66.8678 154.812 67.4899L154.233 72.9929L152.528 72.8136L153.052 67.8256C153.105 67.3214 153.096 66.892 153.025 66.5375C152.953 66.183 152.804 65.9015 152.576 65.6933C152.349 65.485 152.037 65.36 151.64 65.3182C151.039 65.2551 150.53 65.4023 150.113 65.7597C149.696 66.1171 149.447 66.6767 149.367 67.4383L148.843 72.4263L147.137 72.2471ZM159.637 73.7561C158.822 73.6704 158.128 73.413 157.554 72.9841C156.981 72.5551 156.564 71.9852 156.303 71.2745C156.041 70.5637 155.958 69.7578 156.052 68.8567C156.147 67.9557 156.396 67.1901 156.798 66.5599C157.202 65.9191 157.728 65.4484 158.378 65.148C159.029 64.8368 159.762 64.7241 160.577 64.8097C161.275 64.883 161.878 65.0712 162.389 65.3743C162.911 65.6678 163.314 66.0627 163.598 66.5589C163.893 67.0562 164.054 67.6425 164.08 68.3177L162.284 68.2265C162.257 67.6597 162.076 67.2123 161.742 66.8844C161.409 66.5457 160.969 66.3476 160.422 66.2901C159.703 66.2145 159.112 66.4235 158.648 66.917C158.195 67.4009 157.92 68.1095 157.822 69.0428C157.724 69.976 157.845 70.7317 158.186 71.3097C158.538 71.8782 159.074 72.2002 159.793 72.2757C160.34 72.3332 160.811 72.231 161.208 71.969C161.605 71.6962 161.879 71.2533 162.031 70.6401L163.806 70.9244C163.641 71.5686 163.361 72.114 162.967 72.5606C162.584 73.0084 162.105 73.3376 161.53 73.5483C160.965 73.7601 160.334 73.8293 159.637 73.7561ZM168.225 74.6587C167.388 74.5707 166.683 74.3123 166.11 73.8833C165.548 73.4554 165.136 72.8861 164.874 72.1754C164.623 71.4657 164.545 70.6604 164.64 69.7593C164.735 68.8583 164.978 68.0921 165.37 67.4609C165.773 66.82 166.294 66.3488 166.934 66.0472C167.574 65.7349 168.301 65.6216 169.117 65.7073C169.889 65.7885 170.551 66.0424 171.103 66.4691C171.655 66.8851 172.057 67.4479 172.308 68.1576C172.57 68.8683 172.65 69.701 172.55 70.6557L172.504 71.0902L166.358 70.4442C166.312 71.2854 166.466 71.936 166.819 72.3961C167.183 72.8573 167.708 73.124 168.395 73.1961C168.899 73.2491 169.33 73.1751 169.687 72.974C170.044 72.773 170.308 72.4808 170.479 72.0974L172.237 72.3961C171.928 73.1662 171.415 73.763 170.698 74.1866C169.993 74.6005 169.169 74.7579 168.225 74.6587ZM166.493 69.1569L170.837 69.6135C170.864 68.8463 170.703 68.26 170.355 67.8547C170.018 67.4505 169.554 67.2174 168.964 67.1554C168.353 67.0912 167.829 67.2312 167.391 67.5757C166.965 67.9106 166.666 68.4376 166.493 69.1569Z" fill="#0A0A0A"/>
<g clip-path="url(#clip0_10583_15713)">
<path d="M21.9727 195.948L354.509 230.899" stroke="#E5E5E5" stroke-width="0.759928"/>
<path d="M30.4277 115.496L362.965 150.447" stroke="#E5E5E5" stroke-width="0.759928"/>
<path d="M17.7441 236.174L350.281 271.125" stroke="#E5E5E5" stroke-width="0.759928"/>
<path d="M26.1992 155.722L358.736 190.673" stroke="#E5E5E5" stroke-width="0.759928"/>
<path d="M20.839 206.736C41.5223 203.816 62.7352 195.857 84.4776 182.86C106.22 169.863 126.903 166.943 146.528 174.099C166.152 181.256 186.835 178.336 208.577 165.339C230.32 152.342 251.003 149.422 270.627 156.578C290.252 163.735 310.935 160.815 332.677 147.818" stroke="#605B5E" stroke-width="2.02239" stroke-linecap="round" stroke-linejoin="round"/>
<path d="M17.661 236.967L78.1223 243.322C98.276 245.44 119.489 237.482 141.761 219.446C164.033 201.411 185.775 188.414 206.988 180.455C228.201 172.496 249.149 167.057 269.832 164.137C290.516 161.217 311.199 158.296 331.882 155.376" stroke="#FF6600" stroke-width="2.02239" stroke-linecap="round" stroke-linejoin="round"/>
<path d="M331.484 159.154C333.571 159.373 335.441 157.859 335.66 155.772C335.88 153.685 334.366 151.816 332.279 151.596C330.192 151.377 328.322 152.891 328.103 154.978C327.883 157.065 329.397 158.935 331.484 159.154Z" fill="#FF6B35" stroke="white" stroke-width="1.51986"/>
</g>
<path d="M23.704 261.401C23.1909 261.347 22.7537 261.203 22.3924 260.968C22.031 260.734 21.7555 260.437 21.5658 260.075C21.3829 259.708 21.2964 259.297 21.3062 258.842L22.1569 258.875C22.1658 259.211 22.2332 259.503 22.3591 259.75C22.4849 259.998 22.6667 260.194 22.9045 260.339C23.1486 260.485 23.449 260.577 23.8056 260.614C24.1185 260.647 24.3887 260.634 24.6163 260.576C24.8438 260.518 25.0222 260.416 25.1512 260.271C25.2866 260.128 25.3661 259.943 25.3897 259.718C25.4115 259.511 25.3805 259.324 25.2968 259.157C25.22 258.985 25.0509 258.818 24.7894 258.658C24.5348 258.492 24.1484 258.316 23.6304 258.128C23.1311 257.943 22.7363 257.756 22.4462 257.567C22.1623 257.379 21.9633 257.165 21.8493 256.926C21.7416 256.687 21.7052 256.401 21.74 256.07C21.7795 255.694 21.9016 255.375 22.1064 255.112C22.3181 254.843 22.598 254.648 22.9461 254.526C23.2949 254.398 23.6976 254.358 24.1544 254.406C24.6425 254.458 25.0519 254.596 25.3826 254.82C25.7139 255.038 25.966 255.318 26.139 255.659C26.312 256 26.4021 256.376 26.4094 256.788L25.5587 256.756C25.5495 256.483 25.4868 256.236 25.3709 256.015C25.2618 255.788 25.0978 255.603 24.8788 255.46C24.6597 255.317 24.3844 255.228 24.0528 255.193C23.6398 255.149 23.3007 255.215 23.0357 255.39C22.7712 255.558 22.6222 255.802 22.5887 256.121C22.567 256.327 22.5958 256.504 22.6752 256.652C22.7615 256.794 22.9243 256.931 23.1634 257.064C23.4031 257.19 23.7514 257.338 24.2082 257.506C24.7507 257.702 25.1744 257.914 25.4794 258.142C25.7913 258.365 26.003 258.609 26.1143 258.873C26.2319 259.139 26.274 259.431 26.2404 259.75C26.1996 260.138 26.064 260.465 25.8335 260.732C25.6037 260.993 25.3053 261.183 24.9385 261.302C24.5723 261.416 24.1608 261.449 23.704 261.401ZM29.2863 261.949C28.817 261.9 28.4214 261.751 28.0996 261.502C27.7841 261.254 27.5529 260.926 27.4059 260.518C27.2659 260.105 27.2235 259.635 27.2787 259.11C27.334 258.584 27.4727 258.137 27.695 257.768C27.9235 257.4 28.2147 257.127 28.5687 256.949C28.9296 256.765 29.3385 256.697 29.7953 256.745C30.2271 256.791 30.5979 256.934 30.9078 257.176C31.2184 257.411 31.4441 257.732 31.5848 258.139C31.7317 258.546 31.7759 259.029 31.7174 259.586L31.6927 259.82L28.0791 259.44C28.0545 259.976 28.1532 260.391 28.3752 260.686C28.6034 260.982 28.9335 261.153 29.3652 261.198C29.6906 261.233 29.9644 261.185 30.1867 261.057C30.4159 260.923 30.5843 260.735 30.692 260.493L31.5298 260.648C31.3517 261.078 31.063 261.418 30.6635 261.667C30.271 261.91 29.8119 262.005 29.2863 261.949ZM28.1521 258.746L30.9022 259.035C30.9153 258.549 30.8117 258.181 30.5913 257.93C30.3772 257.68 30.0856 257.535 29.7164 257.496C29.3347 257.456 29.0062 257.542 28.7309 257.753C28.4625 257.959 28.2696 258.29 28.1521 258.746ZM32.2831 263.574L32.9539 257.191L33.686 257.268L33.5923 258.34L33.4856 258.272C33.6496 257.916 33.8853 257.659 34.1929 257.502C34.5074 257.339 34.8555 257.277 35.2372 257.317C35.7315 257.369 36.1223 257.534 36.4095 257.811C36.703 258.088 36.9041 258.432 37.0129 258.842C37.1279 259.253 37.1614 259.686 37.1133 260.143C37.0653 260.6 36.9424 261.017 36.7445 261.395C36.5529 261.774 36.2847 262.068 35.9399 262.278C35.6014 262.49 35.185 262.569 34.6907 262.517C34.4341 262.49 34.1978 262.421 33.9817 262.31C33.7719 262.199 33.597 262.058 33.457 261.885C33.3233 261.712 33.2395 261.517 33.2055 261.298L33.3319 261.179L33.0715 263.657L32.2831 263.574ZM34.6945 261.759C35.1262 261.804 35.4844 261.677 35.7689 261.378C36.0534 261.079 36.2262 260.638 36.2874 260.056C36.3485 259.474 36.2711 259.008 36.055 258.656C35.8389 258.304 35.5149 258.106 35.0832 258.06C34.7953 258.03 34.5378 258.073 34.3106 258.188C34.0896 258.304 33.9052 258.493 33.7574 258.756C33.6158 259.02 33.5237 259.355 33.4809 259.761C33.4382 260.168 33.4586 260.515 33.5423 260.802C33.626 261.089 33.767 261.313 33.9653 261.473C34.1636 261.633 34.4066 261.728 34.6945 261.759Z" fill="#605B5E"/>
<path d="M125.981 272.15C125.349 272.084 124.819 271.889 124.391 271.566C123.97 271.237 123.665 270.8 123.475 270.255C123.286 269.71 123.229 269.077 123.304 268.358C123.38 267.638 123.567 267.032 123.866 266.538C124.165 266.038 124.555 265.671 125.035 265.437C125.521 265.203 126.081 265.119 126.713 265.186C127.351 265.253 127.88 265.451 128.301 265.78C128.729 266.109 129.037 266.55 129.225 267.101C129.415 267.646 129.472 268.278 129.396 268.998C129.32 269.718 129.133 270.324 128.835 270.818C128.536 271.312 128.144 271.675 127.657 271.909C127.178 272.137 126.619 272.217 125.981 272.15ZM126.063 271.362C126.526 271.411 126.932 271.346 127.28 271.167C127.634 270.989 127.919 270.709 128.137 270.327C128.354 269.945 128.492 269.472 128.551 268.909C128.61 268.346 128.574 267.855 128.44 267.436C128.308 267.011 128.087 266.675 127.778 266.427C127.475 266.174 127.093 266.023 126.63 265.974C126.173 265.926 125.767 265.994 125.412 266.178C125.065 266.357 124.782 266.64 124.564 267.029C124.347 267.411 124.208 267.883 124.149 268.447C124.09 269.01 124.127 269.501 124.26 269.92C124.393 270.339 124.611 270.672 124.914 270.918C125.224 271.166 125.607 271.314 126.063 271.362ZM132.188 272.765C131.725 272.716 131.333 272.567 131.011 272.318C130.695 272.07 130.464 271.742 130.317 271.334C130.171 270.921 130.125 270.451 130.18 269.925C130.236 269.4 130.378 268.953 130.606 268.584C130.835 268.216 131.129 267.943 131.489 267.766C131.856 267.583 132.272 267.516 132.735 267.565C133.116 267.605 133.447 267.709 133.727 267.878C134.013 268.041 134.237 268.261 134.398 268.537C134.558 268.813 134.647 269.139 134.665 269.514L133.833 269.483C133.812 269.146 133.694 268.877 133.481 268.678C133.269 268.472 132.994 268.351 132.656 268.316C132.199 268.268 131.825 268.396 131.533 268.701C131.243 268.999 131.067 269.436 131.006 270.012C130.946 270.588 131.027 271.055 131.248 271.413C131.471 271.766 131.81 271.966 132.267 272.014C132.605 272.049 132.899 271.986 133.151 271.822C133.402 271.659 133.575 271.392 133.671 271.023L134.491 271.166C134.396 271.529 134.24 271.839 134.024 272.094C133.808 272.344 133.542 272.527 133.225 272.646C132.916 272.765 132.57 272.805 132.188 272.765ZM136.824 273.138C136.373 273.091 136.049 272.952 135.852 272.723C135.661 272.494 135.588 272.161 135.634 271.723L136.145 266.861L136.934 266.943L136.425 271.787C136.401 272.012 136.435 272.174 136.526 272.272C136.617 272.37 136.765 272.43 136.972 272.451L137.685 272.526L137.612 273.221L136.824 273.138ZM135.218 268.642L135.291 267.947L138.135 268.246L138.062 268.941L135.218 268.642Z" fill="#605B5E"/>
<path d="M224.367 282.339L225.067 275.675L226.213 275.795L228.892 281.999L229.507 276.142L230.314 276.227L229.614 282.891L228.412 282.764L225.778 276.68L225.174 282.424L224.367 282.339ZM232.975 283.358C232.519 283.31 232.129 283.161 231.808 282.912C231.486 282.664 231.251 282.335 231.104 281.928C230.958 281.514 230.913 281.044 230.968 280.518C231.024 279.986 231.166 279.536 231.394 279.168C231.623 278.8 231.92 278.527 232.287 278.351C232.654 278.174 233.065 278.11 233.522 278.158C233.979 278.206 234.365 278.354 234.68 278.602C235.002 278.851 235.237 279.18 235.384 279.587C235.531 279.995 235.576 280.465 235.52 280.997C235.465 281.522 235.323 281.972 235.094 282.347C234.865 282.715 234.568 282.987 234.201 283.164C233.841 283.341 233.432 283.406 232.975 283.358ZM233.054 282.607C233.511 282.655 233.882 282.529 234.166 282.23C234.458 281.926 234.634 281.486 234.694 280.91C234.755 280.334 234.674 279.87 234.451 279.518C234.236 279.16 233.9 278.957 233.443 278.909C232.986 278.861 232.612 278.989 232.321 279.294C232.03 279.592 231.854 280.029 231.794 280.605C231.733 281.181 231.814 281.648 232.036 282.006C232.258 282.359 232.598 282.559 233.054 282.607ZM237.36 283.705L236.071 278.54L236.935 278.631L237.942 282.95L239.826 278.934L240.689 279.025L238.355 283.809L237.36 283.705Z" fill="#605B5E"/>
<path d="M328.203 293.405C327.79 293.362 327.434 293.226 327.135 292.999C326.837 292.765 326.616 292.463 326.471 292.094C326.333 291.725 326.284 291.312 326.326 290.854L327.158 290.885C327.11 291.399 327.185 291.805 327.381 292.104C327.577 292.403 327.879 292.574 328.286 292.617C328.711 292.661 329.052 292.548 329.308 292.278C329.571 292.008 329.73 291.604 329.787 291.066L330.242 286.73L331.05 286.815L330.594 291.151C330.541 291.658 330.407 292.09 330.192 292.447C329.978 292.798 329.701 293.056 329.361 293.223C329.027 293.39 328.641 293.451 328.203 293.405ZM333.056 293.877C332.543 293.823 332.146 293.661 331.864 293.391C331.589 293.122 331.474 292.774 331.518 292.349C331.563 291.923 331.723 291.602 331.999 291.384C332.275 291.166 332.691 291.036 333.246 290.993L335.045 290.85C335.089 290.431 335.021 290.107 334.843 289.88C334.671 289.653 334.387 289.519 333.993 289.477C333.649 289.441 333.369 289.491 333.152 289.626C332.936 289.755 332.775 289.96 332.67 290.24L331.841 290.086C331.985 289.627 332.25 289.272 332.637 289.022C333.03 288.766 333.509 288.667 334.072 288.727C334.71 288.794 335.179 289.026 335.479 289.425C335.78 289.817 335.897 290.329 335.83 290.961L335.614 293.017C335.602 293.129 335.612 293.213 335.645 293.267C335.684 293.315 335.75 293.344 335.844 293.354L336.041 293.375L335.968 294.069C335.943 294.073 335.902 294.072 335.845 294.066C335.788 294.066 335.729 294.063 335.666 294.057C335.441 294.033 335.26 293.979 335.123 293.895C334.993 293.806 334.905 293.682 334.858 293.526C334.812 293.363 334.802 293.156 334.829 292.906L334.921 292.934C334.854 293.142 334.728 293.325 334.54 293.483C334.354 293.634 334.13 293.746 333.869 293.82C333.609 293.888 333.338 293.907 333.056 293.877ZM333.204 293.19C333.536 293.225 333.824 293.192 334.069 293.092C334.32 292.985 334.52 292.829 334.669 292.623C334.817 292.411 334.906 292.167 334.935 291.892L334.973 291.535L333.327 291.666C332.982 291.693 332.737 291.765 332.592 291.883C332.454 291.995 332.374 292.154 332.352 292.361C332.328 292.592 332.39 292.782 332.539 292.931C332.695 293.074 332.917 293.16 333.204 293.19ZM336.765 294.153L337.288 289.178L338.011 289.254L337.906 290.524L337.821 290.43C337.914 290.143 338.049 289.913 338.225 289.742C338.402 289.564 338.605 289.44 338.834 289.369C339.069 289.299 339.315 289.278 339.571 289.305C339.953 289.345 340.257 289.462 340.483 289.657C340.716 289.852 340.876 290.1 340.965 290.4C341.061 290.695 341.09 291.017 341.053 291.368L340.717 294.568L339.928 294.486L340.241 291.51C340.273 291.204 340.263 290.943 340.209 290.729C340.163 290.509 340.067 290.337 339.922 290.214C339.777 290.085 339.58 290.008 339.329 289.981C338.948 289.941 338.619 290.03 338.343 290.248C338.074 290.46 337.915 290.797 337.866 291.261L337.554 294.236L336.765 294.153Z" fill="#605B5E"/>
<path d="M308.684 118.306C309.073 114.604 312.39 111.918 316.093 112.307L359.713 116.891C363.416 117.281 366.102 120.598 365.713 124.3L364.022 140.391C363.633 144.094 360.316 146.78 356.613 146.391L312.993 141.806C309.29 141.417 306.604 138.1 306.993 134.397L308.684 118.306Z" fill="#605B5E"/>
<path d="M319.935 132.98L321.064 122.24L322.005 122.339L320.876 133.079L319.935 132.98ZM320.6 132.111C319.908 132.038 319.321 131.854 318.839 131.56C318.359 131.257 317.997 130.873 317.753 130.408C317.517 129.936 317.407 129.404 317.42 128.812L318.986 128.891C318.996 129.258 319.068 129.575 319.203 129.841C319.338 130.107 319.535 130.323 319.794 130.489C320.054 130.646 320.377 130.745 320.763 130.786C321.093 130.821 321.379 130.81 321.621 130.754C321.863 130.69 322.053 130.584 322.191 130.436C322.337 130.288 322.422 130.098 322.446 129.865C322.47 129.639 322.438 129.441 322.35 129.269C322.263 129.089 322.078 128.915 321.795 128.747C321.52 128.58 321.103 128.402 320.546 128.213C319.871 127.971 319.332 127.727 318.926 127.481C318.529 127.236 318.254 126.955 318.1 126.638C317.947 126.313 317.895 125.921 317.943 125.463C317.995 124.972 318.16 124.554 318.441 124.209C318.722 123.857 319.098 123.603 319.57 123.45C320.042 123.288 320.596 123.24 321.232 123.307C321.9 123.377 322.454 123.557 322.896 123.848C323.338 124.13 323.669 124.495 323.891 124.941C324.121 125.388 324.235 125.884 324.235 126.429L322.669 126.35C322.669 126.041 322.609 125.762 322.489 125.513C322.368 125.265 322.19 125.063 321.954 124.908C321.719 124.753 321.424 124.657 321.07 124.62C320.619 124.572 320.254 124.64 319.975 124.822C319.704 124.997 319.552 125.249 319.517 125.579C319.493 125.804 319.526 125.999 319.614 126.163C319.712 126.319 319.891 126.468 320.153 126.61C320.415 126.743 320.79 126.892 321.277 127.057C322.007 127.305 322.577 127.572 322.986 127.859C323.404 128.139 323.688 128.454 323.839 128.803C323.998 129.145 324.056 129.525 324.012 129.944C323.959 130.451 323.779 130.879 323.474 131.229C323.178 131.572 322.781 131.824 322.285 131.983C321.797 132.135 321.235 132.178 320.6 132.111ZM328.201 132.946C327.493 132.872 326.914 132.657 326.464 132.3C326.013 131.944 325.694 131.459 325.506 130.845C325.327 130.232 325.28 129.516 325.366 128.695C325.441 127.979 325.58 127.323 325.781 126.726C325.982 126.128 326.247 125.619 326.576 125.199C326.913 124.77 327.317 124.451 327.787 124.24C328.264 124.03 328.817 123.958 329.444 124.024C330.249 124.108 330.864 124.372 331.289 124.815C331.714 125.259 331.972 125.819 332.064 126.495L330.567 126.46C330.502 126.152 330.373 125.907 330.181 125.724C329.997 125.534 329.7 125.417 329.29 125.374C328.679 125.31 328.169 125.521 327.76 126.006C327.359 126.493 327.089 127.282 326.95 128.374L326.713 128.3C326.82 128.059 326.985 127.84 327.209 127.644C327.441 127.449 327.717 127.303 328.036 127.207C328.356 127.102 328.721 127.071 329.132 127.114C329.711 127.175 330.202 127.345 330.603 127.623C331.013 127.902 331.316 128.271 331.512 128.731C331.708 129.183 331.777 129.694 331.717 130.266C331.651 130.893 331.457 131.422 331.135 131.852C330.814 132.273 330.4 132.58 329.892 132.77C329.392 132.954 328.829 133.012 328.201 132.946ZM328.34 131.631C328.814 131.681 329.216 131.573 329.545 131.306C329.883 131.033 330.08 130.63 330.136 130.099C330.17 129.77 330.132 129.473 330.022 129.209C329.919 128.946 329.758 128.738 329.538 128.585C329.328 128.424 329.065 128.327 328.751 128.295C328.422 128.26 328.121 128.297 327.849 128.407C327.586 128.51 327.365 128.678 327.186 128.911C327.015 129.145 326.912 129.427 326.877 129.757C326.842 130.095 326.875 130.399 326.977 130.67C327.087 130.934 327.259 131.151 327.494 131.322C327.728 131.493 328.01 131.596 328.34 131.631ZM335.906 133.756C335.198 133.682 334.619 133.466 334.168 133.11C333.718 132.753 333.399 132.268 333.211 131.655C333.031 131.042 332.985 130.326 333.071 129.505C333.146 128.789 333.284 128.132 333.485 127.535C333.686 126.938 333.951 126.429 334.28 126.008C334.618 125.58 335.022 125.261 335.491 125.05C335.969 124.84 336.521 124.768 337.149 124.834C337.953 124.918 338.568 125.182 338.993 125.625C339.419 126.068 339.677 126.628 339.769 127.305L338.272 127.27C338.206 126.962 338.078 126.717 337.885 126.534C337.702 126.344 337.405 126.227 336.995 126.184C336.383 126.12 335.873 126.33 335.464 126.816C335.063 127.303 334.793 128.092 334.654 129.183L334.418 129.11C334.524 128.869 334.69 128.65 334.914 128.454C335.146 128.259 335.421 128.113 335.741 128.016C336.061 127.912 336.426 127.881 336.836 127.924C337.416 127.985 337.906 128.155 338.308 128.433C338.718 128.712 339.021 129.081 339.216 129.541C339.413 129.993 339.481 130.504 339.421 131.075C339.355 131.703 339.161 132.232 338.84 132.661C338.519 133.083 338.104 133.389 337.596 133.58C337.097 133.763 336.534 133.822 335.906 133.756ZM336.044 132.441C336.519 132.491 336.921 132.382 337.25 132.116C337.588 131.842 337.784 131.44 337.84 130.909C337.875 130.579 337.837 130.282 337.726 130.019C337.624 129.756 337.463 129.548 337.243 129.394C337.032 129.234 336.77 129.137 336.456 129.104C336.126 129.07 335.825 129.107 335.553 129.217C335.291 129.319 335.07 129.487 334.89 129.721C334.719 129.955 334.617 130.237 334.582 130.567C334.546 130.905 334.579 131.209 334.681 131.48C334.792 131.744 334.964 131.961 335.198 132.132C335.432 132.303 335.714 132.406 336.044 132.441ZM343.816 134.587C343.092 134.511 342.479 134.264 341.978 133.845C341.485 133.427 341.129 132.869 340.91 132.171C340.69 131.473 340.629 130.665 340.725 129.748C340.821 128.831 341.05 128.054 341.409 127.417C341.77 126.771 342.235 126.295 342.804 125.989C343.382 125.676 344.033 125.557 344.757 125.633C345.497 125.711 346.113 125.963 346.605 126.389C347.098 126.807 347.454 127.365 347.674 128.063C347.893 128.761 347.954 129.573 347.857 130.498C347.761 131.415 347.533 132.192 347.173 132.83C346.813 133.467 346.349 133.939 345.78 134.245C345.211 134.551 344.556 134.665 343.816 134.587ZM343.959 133.224C344.587 133.29 345.097 133.079 345.49 132.592C345.883 132.096 346.134 131.342 346.24 130.328C346.311 129.652 346.295 129.073 346.191 128.59C346.087 128.107 345.903 127.734 345.638 127.47C345.381 127.2 345.04 127.042 344.614 126.997C344.203 126.954 343.841 127.038 343.526 127.248C343.211 127.451 342.953 127.778 342.752 128.229C342.55 128.679 342.413 129.242 342.342 129.918C342.236 130.932 342.323 131.722 342.605 132.288C342.888 132.847 343.34 133.159 343.959 133.224ZM348.517 134.886L349.418 126.318L350.962 126.481L350.434 131.513L353.382 128.882L355.289 129.083L352.485 131.497L354.696 135.536L352.958 135.353L351.375 132.307L350.248 133.275L350.062 135.049L348.517 134.886Z" fill="white"/>
<path d="M10.8388 301.877C11.9018 291.764 12.4333 286.707 15.9054 283.895C19.3775 281.084 24.4342 281.615 34.5477 282.678L95.3323 289.067C105.446 290.13 110.503 290.661 113.314 294.134C116.126 297.606 115.594 302.662 114.531 312.776L111.228 344.21C110.165 354.323 109.633 359.38 106.161 362.192C102.689 365.003 97.6322 364.472 87.5187 363.409L26.7341 357.02C16.6206 355.957 11.5638 355.426 8.7522 351.953C5.94056 348.481 6.47205 343.425 7.53502 333.311L10.8388 301.877Z" fill="#F8F8F8"/>
<path d="M30.3097 317.059L31.8148 302.738L33.0699 302.87L31.5648 317.191L30.3097 317.059ZM31.1962 315.9C30.2736 315.803 29.4914 315.558 28.8494 315.165C28.2086 314.761 27.7255 314.25 27.4002 313.63C27.0868 313 26.939 312.291 26.957 311.501L29.0445 311.606C29.0581 312.096 29.1547 312.518 29.3343 312.873C29.5139 313.228 29.7765 313.516 30.122 313.737C30.4687 313.947 30.8995 314.079 31.4144 314.133C31.8542 314.179 32.2353 314.165 32.5576 314.09C32.8811 314.005 33.1346 313.864 33.318 313.666C33.5122 313.47 33.6257 313.216 33.6583 312.905C33.6899 312.604 33.6472 312.34 33.5303 312.11C33.4146 311.87 33.1678 311.638 32.7901 311.414C32.4231 311.191 31.8678 310.954 31.1242 310.702C30.2254 310.38 29.5058 310.055 28.9654 309.727C28.4358 309.4 28.0685 309.026 27.8635 308.603C27.6596 308.169 27.5898 307.647 27.6541 307.035C27.7229 306.381 27.9441 305.824 28.3177 305.364C28.6925 304.894 29.1944 304.556 29.8233 304.351C30.4533 304.135 31.192 304.072 32.0395 304.161C32.9298 304.255 33.6692 304.495 34.2575 304.882C34.847 305.259 35.2894 305.745 35.5848 306.34C35.8908 306.936 36.0437 307.597 36.0432 308.324L33.9557 308.218C33.9556 307.806 33.8754 307.434 33.715 307.103C33.5546 306.771 33.3172 306.502 33.0027 306.296C32.6882 306.089 32.2949 305.961 31.823 305.912C31.2223 305.848 30.7356 305.938 30.363 306.181C30.0023 306.414 29.7988 306.751 29.7526 307.191C29.721 307.491 29.7643 307.75 29.8823 307.969C30.0122 308.178 30.2516 308.376 30.6005 308.565C30.9506 308.743 31.4503 308.942 32.0995 309.162C33.0735 309.492 33.8332 309.848 34.3786 310.231C34.9359 310.604 35.3148 311.024 35.5153 311.489C35.7276 311.945 35.8045 312.452 35.7459 313.01C35.6748 313.686 35.4358 314.257 35.0288 314.724C34.6337 315.182 34.105 315.517 33.4428 315.729C32.7925 315.932 32.0436 315.989 31.1962 315.9ZM36.9021 316.288C36.9991 315.365 37.2124 314.574 37.542 313.915C37.8727 313.245 38.3737 312.657 39.0449 312.153C39.7172 311.638 40.6023 311.162 41.7004 310.724C42.2446 310.499 42.6835 310.296 43.0171 310.114C43.3508 309.932 43.5991 309.736 43.7623 309.525C43.9265 309.304 44.0256 309.032 44.0594 308.711C44.0932 308.389 44.0528 308.103 43.9381 307.852C43.8246 307.591 43.6357 307.376 43.3715 307.207C43.118 307.039 42.7874 306.934 42.3798 306.891C41.7254 306.822 41.1854 306.955 40.7598 307.29C40.346 307.615 40.0602 308.117 39.9022 308.794L37.7596 308.439C37.992 307.26 38.5245 306.372 39.3572 305.776C40.2017 305.171 41.2729 304.936 42.5709 305.073C43.4076 305.161 44.1111 305.381 44.6814 305.734C45.2528 306.076 45.6669 306.521 45.9239 307.068C46.1916 307.617 46.2899 308.229 46.2189 308.905C46.158 309.484 46.0037 309.972 45.7559 310.369C45.5188 310.767 45.1564 311.12 44.6687 311.426C44.1928 311.723 43.5586 312.031 42.766 312.349C41.769 312.754 41.0097 313.168 40.4881 313.59C39.9677 314.002 39.6727 314.383 39.6033 314.733L45.5407 315.357L45.3496 317.176L36.9021 316.288ZM46.5822 317.305L46.8189 315.052L49.1682 315.299L48.9314 317.552L46.5822 317.305ZM55.3935 318.231L55.6336 315.946L49.9054 315.344L50.0847 313.639L56.2563 306.772L58.686 307.027L57.9165 314.348L59.2842 314.492L59.0931 316.31L57.7254 316.166L57.4852 318.451L55.3935 318.231ZM52.3814 313.766L55.8247 314.128L56.3084 309.526L52.3814 313.766ZM60.5517 318.773L61.7525 307.349L64.5683 307.645L66.7919 316.826L70.8758 308.308L73.6916 308.604L72.4909 320.028L70.3991 319.808L71.2278 311.924L67.5206 319.49L65.5254 319.28L63.4722 311.109L62.6435 318.993L60.5517 318.773Z" fill="#1F1A1D"/>
<path d="M25.6671 336.617L26.2846 330.742L24.2103 330.524L24.2932 329.735L29.249 330.256L29.1662 331.045L27.0918 330.827L26.4743 336.702L25.6671 336.617ZM30.4955 337.239C30.0387 337.191 29.6494 337.042 29.3276 336.793C29.0058 336.544 28.7714 336.216 28.6245 335.808C28.4782 335.395 28.4327 334.925 28.4879 334.399C28.5438 333.867 28.686 333.417 28.9145 333.049C29.143 332.681 29.4405 332.408 29.807 332.232C30.1736 332.055 30.5852 331.991 31.042 332.039C31.4988 332.087 31.885 332.235 32.2005 332.483C32.5223 332.732 32.7567 333.061 32.9036 333.468C33.0506 333.876 33.0961 334.346 33.0402 334.878C32.9849 335.403 32.8427 335.853 32.6136 336.228C32.3851 336.596 32.0876 336.868 31.721 337.045C31.3608 337.222 30.9523 337.287 30.4955 337.239ZM30.5744 336.488C31.0312 336.536 31.4018 336.41 31.6863 336.111C31.9777 335.807 32.1537 335.366 32.2142 334.791C32.2747 334.215 32.1938 333.751 31.9714 333.399C31.756 333.041 31.4199 332.838 30.9631 332.79C30.5063 332.742 30.1322 332.87 29.8408 333.175C29.55 333.473 29.3744 333.91 29.3139 334.486C29.2534 335.062 29.334 335.529 29.5557 335.887C29.778 336.24 30.1176 336.44 30.5744 336.488ZM35.3878 337.639C34.9373 337.592 34.6133 337.453 34.416 337.224C34.225 336.995 34.1525 336.662 34.1985 336.224L34.7095 331.362L35.498 331.444L34.9889 336.288C34.9652 336.513 34.9989 336.675 35.0898 336.773C35.1807 336.871 35.3294 336.931 35.5359 336.952L36.2492 337.027L36.1762 337.722L35.3878 337.639ZM33.7821 333.143L33.8551 332.448L36.6991 332.747L36.6261 333.442L33.7821 333.143ZM38.3874 338.068C37.8743 338.014 37.4769 337.852 37.1953 337.582C36.9199 337.313 36.8046 336.966 36.8493 336.54C36.894 336.115 37.0544 335.793 37.3303 335.575C37.6063 335.358 38.0217 335.227 38.5766 335.184L40.3757 335.041C40.4198 334.622 40.3526 334.299 40.174 334.071C40.0017 333.844 39.7185 333.71 39.3243 333.669C38.9801 333.632 38.6997 333.682 38.483 333.817C38.267 333.947 38.1063 334.151 38.001 334.431L37.1725 334.278C37.3157 333.818 37.5808 333.463 37.9677 333.213C38.3615 332.957 38.84 332.859 39.4032 332.918C40.0415 332.985 40.5105 333.218 40.8102 333.616C41.1106 334.008 41.2276 334.52 41.1612 335.152L40.9451 337.208C40.9333 337.32 40.9435 337.404 40.9758 337.458C41.015 337.506 41.0815 337.535 41.1754 337.545L41.3725 337.566L41.2995 338.26C41.2738 338.264 41.2328 338.263 41.1765 338.257C41.1195 338.257 41.0598 338.254 40.9972 338.248C40.7719 338.224 40.5909 338.17 40.4543 338.086C40.3245 337.997 40.2362 337.874 40.1894 337.717C40.1433 337.554 40.1334 337.347 40.1597 337.097L40.2516 337.125C40.1854 337.334 40.0586 337.516 39.8713 337.674C39.6846 337.825 39.4608 337.938 39.2 338.011C38.9398 338.079 38.6689 338.098 38.3874 338.068ZM38.5355 337.382C38.8671 337.416 39.1553 337.383 39.3999 337.283C39.6515 337.176 39.8514 337.02 39.9996 336.814C40.1484 336.602 40.2373 336.358 40.2662 336.083L40.3037 335.726L38.6577 335.857C38.3132 335.884 38.0684 335.957 37.9232 336.074C37.7849 336.186 37.7049 336.345 37.6832 336.552C37.6588 336.783 37.7211 336.973 37.87 337.122C38.0258 337.265 38.2476 337.351 38.5355 337.382ZM43.0173 338.441C42.7295 338.411 42.5027 338.311 42.337 338.142C42.1714 337.973 42.1056 337.725 42.1398 337.4L42.7416 331.674L43.53 331.757L42.9352 337.417C42.9246 337.517 42.9414 337.598 42.9856 337.66C43.0366 337.716 43.1122 337.749 43.2123 337.759L43.6441 337.805L43.5711 338.499L43.0173 338.441ZM46.815 338.84L47.5154 332.176L50.0403 332.441C50.5096 332.491 50.9046 332.615 51.2254 332.813C51.5462 333.011 51.7812 333.273 51.9305 333.599C52.0866 333.919 52.143 334.285 52.0996 334.698C52.068 334.999 51.9678 335.26 51.7989 335.483C51.6369 335.7 51.4391 335.866 51.2057 335.98C50.9722 336.095 50.7359 336.146 50.4968 336.133L50.4494 336.043C50.8561 336.086 51.1653 336.213 51.3771 336.425C51.5952 336.638 51.7013 336.953 51.6954 337.37L51.677 339.351L50.8604 339.265L50.8887 337.37C50.8926 337.092 50.8139 336.879 50.6525 336.729C50.4974 336.58 50.2258 336.485 49.8378 336.444L47.9043 336.241L47.6222 338.925L46.815 338.84ZM47.9872 335.452L49.8081 335.644C50.2148 335.686 50.5479 335.617 50.8074 335.435C51.0669 335.254 51.2167 334.972 51.2568 334.591C51.2976 334.203 51.2068 333.893 50.9845 333.66C50.7628 333.422 50.4204 333.279 49.9574 333.23L48.2397 333.049L47.9872 335.452ZM54.7359 339.787C54.2665 339.737 53.871 339.588 53.5492 339.339C53.2337 339.091 53.0024 338.763 52.8555 338.355C52.7154 337.942 52.673 337.473 52.7283 336.947C52.7835 336.421 52.9223 335.974 53.1445 335.605C53.373 335.237 53.6643 334.964 54.0183 334.786C54.3792 334.602 54.7881 334.535 55.2448 334.583C55.6766 334.628 56.0475 334.771 56.3574 335.013C56.668 335.248 56.8936 335.569 57.0343 335.976C57.1813 336.384 57.2255 336.866 57.1669 337.423L57.1423 337.658L53.5286 337.278C53.504 337.813 53.6027 338.228 53.8247 338.524C54.053 338.82 54.383 338.99 54.8148 339.036C55.1402 339.07 55.414 339.023 55.6363 338.894C55.8655 338.76 56.0339 338.572 56.1415 338.331L56.9794 338.485C56.8013 338.916 56.5125 339.255 56.1131 339.504C55.7206 339.748 55.2615 339.842 54.7359 339.787ZM53.6016 336.583L56.3518 336.872C56.3649 336.386 56.2612 336.018 56.0409 335.767C55.8268 335.517 55.5351 335.372 55.1659 335.334C54.7842 335.294 54.4557 335.379 54.1804 335.591C53.9121 335.797 53.7191 336.127 53.6016 336.583ZM59.3393 340.27C58.8262 340.217 58.4288 340.055 58.1472 339.785C57.8718 339.515 57.7565 339.168 57.8012 338.742C57.846 338.317 58.0063 337.995 58.2823 337.777C58.5582 337.56 58.9736 337.429 59.5285 337.386L61.3277 337.243C61.3717 336.824 61.3045 336.501 61.126 336.273C60.9537 336.046 60.6704 335.912 60.2762 335.871C59.9321 335.835 59.6516 335.884 59.435 336.02C59.2189 336.149 59.0583 336.353 58.9529 336.633L58.1245 336.48C58.2676 336.02 58.5327 335.665 58.9196 335.415C59.3135 335.159 59.792 335.061 60.3551 335.12C60.9934 335.187 61.4624 335.42 61.7622 335.818C62.0626 336.21 62.1796 336.722 62.1131 337.354L61.8971 339.41C61.8853 339.523 61.8955 339.606 61.9278 339.66C61.967 339.708 62.0335 339.737 62.1273 339.747L62.3245 339.768L62.2515 340.463C62.2258 340.466 62.1848 340.465 62.1284 340.459C62.0715 340.46 62.0117 340.456 61.9491 340.45C61.7239 340.426 61.5429 340.372 61.4062 340.288C61.2764 340.199 61.1881 340.076 61.1414 339.919C61.0952 339.756 61.0853 339.549 61.1116 339.299L61.2035 339.328C61.1373 339.536 61.0106 339.719 60.8232 339.876C60.6365 340.027 60.4127 340.14 60.1519 340.213C59.8918 340.281 59.6209 340.3 59.3393 340.27ZM59.4874 339.584C59.819 339.619 60.1072 339.586 60.3519 339.485C60.6035 339.378 60.8034 339.222 60.9515 339.016C61.1003 338.804 61.1892 338.561 61.2182 338.285L61.2556 337.929L59.6097 338.059C59.2652 338.086 59.0203 338.159 58.8751 338.276C58.7368 338.388 58.6568 338.547 58.6351 338.754C58.6108 338.985 58.6731 339.176 58.8219 339.324C58.9777 339.467 59.1996 339.553 59.4874 339.584ZM63.9693 340.643C63.6814 340.613 63.4547 340.513 63.289 340.344C63.1233 340.175 63.0576 339.927 63.0918 339.602L63.6935 333.876L64.482 333.959L63.8871 339.619C63.8766 339.719 63.8934 339.8 63.9375 339.862C63.9886 339.918 64.0642 339.951 64.1643 339.961L64.596 340.007L64.523 340.701L63.9693 340.643ZM65.3283 340.786L65.8511 335.811L66.6396 335.894L66.1167 340.869L65.3283 340.786ZM65.9142 335.03L66.0109 334.111L66.8369 334.197L66.7402 335.117L65.9142 335.03ZM69.234 341.31C68.7897 341.264 68.4187 341.152 68.1209 340.975C67.8294 340.799 67.6093 340.577 67.4604 340.308C67.3184 340.034 67.252 339.732 67.2611 339.404L68.093 339.435C68.1115 339.74 68.2145 339.995 68.4019 340.198C68.59 340.395 68.8936 340.515 69.3129 340.56C69.6508 340.595 69.9254 340.57 70.1369 340.485C70.3552 340.394 70.4772 340.226 70.5028 339.982C70.5166 339.851 70.4969 339.738 70.4435 339.644C70.3901 339.55 70.276 339.462 70.1011 339.38C69.9269 339.292 69.6647 339.198 69.3146 339.098C68.8483 338.961 68.484 338.815 68.2218 338.661C67.9666 338.501 67.7894 338.321 67.6902 338.121C67.598 337.915 67.5657 337.681 67.5933 337.418C67.64 336.974 67.8408 336.628 68.1958 336.38C68.5514 336.127 69.0296 336.032 69.6303 336.095C70.0371 336.137 70.3702 336.248 70.6297 336.428C70.8962 336.601 71.0948 336.818 71.2256 337.079C71.3633 337.333 71.442 337.607 71.4619 337.9L70.63 337.87C70.6108 337.691 70.5581 337.53 70.4718 337.388C70.3862 337.24 70.2659 337.12 70.1111 337.028C69.957 336.929 69.7673 336.868 69.542 336.845C69.1853 336.807 68.9153 336.848 68.7319 336.968C68.5485 337.088 68.4456 337.254 68.4232 337.467C68.4061 337.63 68.4295 337.768 68.4934 337.883C68.5642 337.991 68.6836 338.089 68.8516 338.177C69.0202 338.258 69.249 338.339 69.5378 338.419C70.0355 338.56 70.4185 338.708 70.6869 338.863C70.9554 339.018 71.1363 339.192 71.2299 339.385C71.3235 339.578 71.3564 339.806 71.3288 340.069C71.2966 340.376 71.1814 340.629 70.9831 340.83C70.7918 341.025 70.5432 341.163 70.2373 341.245C69.9376 341.327 69.6032 341.349 69.234 341.31ZM74.1021 341.822C73.6328 341.773 73.2372 341.624 72.9154 341.375C72.5999 341.126 72.3686 340.798 72.2217 340.391C72.0816 339.977 72.0393 339.508 72.0945 338.982C72.1497 338.457 72.2885 338.01 72.5107 337.641C72.7392 337.272 73.0305 336.999 73.3845 336.821C73.7454 336.638 74.1543 336.57 74.611 336.618C75.0428 336.664 75.4137 336.807 75.7236 337.048C76.0342 337.283 76.2598 337.604 76.4005 338.011C76.5475 338.419 76.5917 338.901 76.5331 339.458L76.5085 339.693L72.8948 339.313C72.8702 339.848 72.9689 340.264 73.1909 340.559C73.4192 340.855 73.7492 341.026 74.181 341.071C74.5064 341.105 74.7802 341.058 75.0025 340.93C75.2317 340.796 75.4001 340.608 75.5077 340.366L76.3456 340.521C76.1675 340.951 75.8787 341.291 75.4793 341.54C75.0868 341.783 74.6277 341.877 74.1021 341.822ZM72.9678 338.619L75.718 338.908C75.7311 338.422 75.6274 338.054 75.4071 337.803C75.193 337.552 74.9013 337.408 74.5321 337.369C74.1504 337.329 73.8219 337.415 73.5466 337.626C73.2783 337.832 73.0853 338.163 72.9678 338.619ZM78.9996 342.337C78.5678 342.291 78.2035 342.146 77.9068 341.899C77.6163 341.654 77.4069 341.328 77.2787 340.922C77.1506 340.517 77.1144 340.048 77.1703 339.516C77.2262 338.984 77.3591 338.533 77.5688 338.163C77.7785 337.793 78.051 337.518 78.3862 337.338C78.7277 337.158 79.1143 337.092 79.5461 337.137C79.8777 337.172 80.1737 337.276 80.4339 337.448C80.6947 337.615 80.8805 337.834 80.9912 338.105L81.2418 335.721L82.0302 335.804L81.3298 342.468L80.6164 342.393L80.6672 341.639C80.5012 341.894 80.2693 342.084 79.9712 342.211C79.6739 342.332 79.35 342.374 78.9996 342.337ZM79.238 341.603C79.5321 341.634 79.7872 341.584 80.0032 341.455C80.2255 341.327 80.4043 341.131 80.5396 340.866C80.6756 340.596 80.7633 340.273 80.8028 339.898C80.8435 339.51 80.8252 339.172 80.7478 338.886C80.6703 338.599 80.5359 338.373 80.3446 338.208C80.1601 338.037 79.9208 337.935 79.6267 337.905C79.1887 337.859 78.8209 337.988 78.5232 338.292C78.2325 338.59 78.0568 339.027 77.9963 339.603C77.9365 340.172 78.0174 340.636 78.2391 340.995C78.467 341.354 78.8 341.557 79.238 341.603Z" fill="#605B5E"/>
<path d="M125.259 313.903C126.322 303.79 126.853 298.733 130.325 295.921C133.797 293.11 138.854 293.641 148.968 294.704L209.752 301.093C219.866 302.156 224.922 302.687 227.734 306.159C230.546 309.631 230.014 314.688 228.951 324.802L225.647 356.236C224.584 366.349 224.053 371.406 220.581 374.217C217.109 377.029 212.052 376.498 201.939 375.435L141.154 369.046C131.041 367.983 125.984 367.451 123.172 363.979C120.36 360.507 120.892 355.451 121.955 345.337L125.259 313.903Z" fill="#F8F8F8"/>
<path d="M145.354 327.946C144.463 327.853 143.722 327.634 143.129 327.289C142.536 326.945 142.094 326.508 141.802 325.979C141.512 325.438 141.37 324.832 141.375 324.16L143.527 324.273C143.557 324.818 143.75 325.245 144.108 325.554C144.466 325.863 144.946 326.049 145.546 326.112C146.244 326.185 146.805 326.054 147.231 325.719C147.668 325.375 147.924 324.854 147.997 324.157C148.043 323.717 147.992 323.321 147.845 322.97C147.708 322.619 147.483 322.335 147.17 322.118C146.857 321.9 146.464 321.767 145.992 321.717C145.509 321.667 145.074 321.729 144.687 321.906C144.312 322.072 144.025 322.319 143.828 322.645L141.704 322.422L143.186 315.908L150.186 316.643L149.995 318.461L144.813 317.917L143.981 321.506L143.732 321.236C143.936 320.954 144.187 320.725 144.488 320.551C144.789 320.365 145.128 320.238 145.504 320.169C145.891 320.102 146.299 320.09 146.728 320.135C147.5 320.217 148.153 320.453 148.687 320.846C149.231 321.239 149.628 321.742 149.878 322.354C150.139 322.967 150.231 323.643 150.153 324.383C150.068 325.188 149.812 325.877 149.383 326.45C148.966 327.013 148.407 327.427 147.707 327.689C147.018 327.953 146.233 328.039 145.354 327.946ZM151.322 328.313C151.419 327.391 151.632 326.6 151.962 325.94C152.293 325.27 152.794 324.683 153.465 324.178C154.137 323.663 155.022 323.187 156.12 322.749C156.664 322.525 157.103 322.321 157.437 322.139C157.771 321.958 158.019 321.761 158.182 321.551C158.346 321.329 158.445 321.058 158.479 320.736C158.513 320.414 158.473 320.128 158.358 319.877C158.245 319.616 158.056 319.401 157.791 319.232C157.538 319.065 157.207 318.959 156.8 318.916C156.145 318.848 155.605 318.981 155.18 319.316C154.766 319.641 154.48 320.142 154.322 320.82L152.18 320.464C152.412 319.285 152.944 318.397 153.777 317.802C154.622 317.196 155.693 316.962 156.991 317.098C157.828 317.186 158.531 317.406 159.101 317.759C159.673 318.101 160.087 318.546 160.344 319.094C160.612 319.642 160.71 320.255 160.639 320.93C160.578 321.51 160.424 321.998 160.176 322.395C159.939 322.793 159.576 323.145 159.089 323.452C158.613 323.749 157.978 324.056 157.186 324.374C156.189 324.779 155.43 325.193 154.908 325.615C154.388 326.027 154.093 326.408 154.023 326.759L159.961 327.383L159.77 329.201L151.322 328.313ZM165.678 330.082C164.713 329.981 163.896 329.651 163.228 329.093C162.571 328.536 162.096 327.792 161.803 326.861C161.511 325.93 161.429 324.853 161.557 323.63C161.686 322.407 161.99 321.371 162.469 320.521C162.95 319.66 163.57 319.026 164.329 318.618C165.099 318.2 165.967 318.042 166.933 318.143C167.92 318.247 168.741 318.583 169.397 319.151C170.055 319.708 170.53 320.452 170.822 321.383C171.115 322.314 171.196 323.396 171.067 324.629C170.938 325.852 170.634 326.889 170.154 327.738C169.674 328.588 169.055 329.217 168.296 329.625C167.538 330.034 166.665 330.186 165.678 330.082ZM165.869 328.264C166.706 328.352 167.386 328.071 167.91 327.421C168.435 326.761 168.768 325.754 168.91 324.403C169.005 323.502 168.983 322.729 168.845 322.086C168.706 321.442 168.46 320.945 168.107 320.593C167.765 320.232 167.31 320.021 166.742 319.961C166.195 319.904 165.711 320.016 165.291 320.297C164.872 320.567 164.528 321.003 164.259 321.604C163.99 322.205 163.808 322.955 163.713 323.857C163.571 325.208 163.688 326.262 164.064 327.017C164.442 327.762 165.043 328.177 165.869 328.264Z" fill="#1F1A1D"/>
<path d="M138.088 348.433L141.191 342.022L142.28 342.136L143.982 349.053L143.1 348.96L142.633 346.994L139.836 346.7L138.97 348.526L138.088 348.433ZM140.191 345.94L142.443 346.177L141.661 342.783L140.191 345.94ZM146.461 349.427C146.017 349.38 145.646 349.269 145.348 349.092C145.057 348.916 144.837 348.693 144.688 348.425C144.546 348.15 144.479 347.849 144.489 347.521L145.32 347.552C145.339 347.857 145.442 348.112 145.629 348.315C145.817 348.512 146.121 348.632 146.54 348.676C146.878 348.712 147.153 348.687 147.364 348.602C147.583 348.511 147.705 348.343 147.73 348.099C147.744 347.968 147.724 347.855 147.671 347.761C147.618 347.667 147.503 347.579 147.329 347.497C147.154 347.409 146.892 347.315 146.542 347.215C146.076 347.077 145.711 346.932 145.449 346.778C145.194 346.618 145.017 346.438 144.918 346.238C144.825 346.032 144.793 345.798 144.821 345.535C144.867 345.09 145.068 344.745 145.423 344.497C145.779 344.244 146.257 344.148 146.858 344.211C147.264 344.254 147.598 344.365 147.857 344.544C148.124 344.718 148.322 344.935 148.453 345.195C148.591 345.45 148.669 345.724 148.689 346.017L147.857 345.987C147.838 345.808 147.786 345.647 147.699 345.505C147.614 345.357 147.493 345.237 147.339 345.145C147.184 345.046 146.995 344.985 146.769 344.961C146.413 344.924 146.143 344.965 145.959 345.085C145.776 345.205 145.673 345.371 145.651 345.584C145.634 345.747 145.657 345.885 145.721 345.999C145.792 346.108 145.911 346.206 146.079 346.293C146.248 346.374 146.476 346.455 146.765 346.536C147.263 346.677 147.646 346.825 147.914 346.98C148.183 347.134 148.364 347.308 148.457 347.502C148.551 347.695 148.584 347.923 148.556 348.186C148.524 348.493 148.409 348.746 148.211 348.947C148.019 349.142 147.771 349.28 147.465 349.362C147.165 349.444 146.831 349.466 146.461 349.427ZM151.198 349.925C150.754 349.878 150.383 349.767 150.085 349.59C149.794 349.414 149.573 349.191 149.424 348.923C149.282 348.648 149.216 348.347 149.225 348.019L150.057 348.05C150.076 348.355 150.179 348.61 150.366 348.813C150.554 349.01 150.858 349.13 151.277 349.174C151.615 349.21 151.89 349.185 152.101 349.099C152.319 349.008 152.441 348.841 152.467 348.597C152.481 348.466 152.461 348.353 152.408 348.259C152.354 348.164 152.24 348.076 152.065 347.995C151.891 347.907 151.629 347.813 151.279 347.713C150.812 347.575 150.448 347.429 150.186 347.275C149.931 347.116 149.753 346.936 149.654 346.736C149.562 346.53 149.53 346.295 149.557 346.033C149.604 345.588 149.805 345.242 150.16 344.995C150.516 344.741 150.994 344.646 151.594 344.709C152.001 344.752 152.334 344.863 152.594 345.042C152.86 345.216 153.059 345.433 153.19 345.693C153.327 345.948 153.406 346.222 153.426 346.515L152.594 346.485C152.575 346.305 152.522 346.145 152.436 346.003C152.35 345.855 152.23 345.735 152.075 345.642C151.921 345.544 151.731 345.483 151.506 345.459C151.149 345.422 150.879 345.463 150.696 345.583C150.513 345.703 150.41 345.869 150.387 346.082C150.37 346.245 150.394 346.383 150.458 346.497C150.528 346.606 150.648 346.704 150.816 346.791C150.984 346.872 151.213 346.953 151.502 347.034C152 347.175 152.383 347.323 152.651 347.478C152.919 347.632 153.1 347.806 153.194 348C153.288 348.193 153.321 348.421 153.293 348.684C153.261 348.99 153.145 349.244 152.947 349.445C152.756 349.64 152.507 349.778 152.201 349.86C151.902 349.942 151.567 349.964 151.198 349.925ZM156.066 350.437C155.597 350.387 155.201 350.238 154.88 349.989C154.564 349.741 154.333 349.413 154.186 349.005C154.046 348.592 154.003 348.123 154.059 347.597C154.114 347.071 154.253 346.624 154.475 346.255C154.703 345.887 154.995 345.614 155.349 345.436C155.71 345.253 156.118 345.185 156.575 345.233C157.007 345.278 157.378 345.422 157.688 345.663C157.998 345.898 158.224 346.219 158.365 346.626C158.512 347.034 158.556 347.516 158.497 348.073L158.473 348.308L154.859 347.928C154.834 348.463 154.933 348.878 155.155 349.174C155.383 349.47 155.713 349.64 156.145 349.686C156.47 349.72 156.744 349.673 156.967 349.544C157.196 349.41 157.364 349.222 157.472 348.981L158.31 349.135C158.132 349.566 157.843 349.905 157.443 350.154C157.051 350.398 156.592 350.492 156.066 350.437ZM154.932 347.233L157.682 347.522C157.695 347.037 157.592 346.668 157.371 346.417C157.157 346.167 156.865 346.023 156.496 345.984C156.115 345.944 155.786 346.029 155.511 346.241C155.242 346.447 155.049 346.777 154.932 347.233ZM160.839 350.824C160.389 350.777 160.065 350.639 159.868 350.409C159.677 350.18 159.604 349.847 159.65 349.409L160.161 344.547L160.95 344.63L160.44 349.473C160.417 349.698 160.45 349.86 160.541 349.958C160.632 350.056 160.781 350.116 160.987 350.138L161.701 350.213L161.628 350.907L160.839 350.824ZM159.234 346.328L159.307 345.634L162.151 345.933L162.078 346.627L159.234 346.328ZM164.253 351.297C163.809 351.25 163.438 351.139 163.14 350.962C162.849 350.786 162.629 350.563 162.48 350.295C162.338 350.02 162.271 349.719 162.28 349.391L163.112 349.422C163.131 349.727 163.234 349.982 163.421 350.185C163.609 350.382 163.913 350.502 164.332 350.546C164.67 350.582 164.945 350.557 165.156 350.472C165.374 350.381 165.496 350.213 165.522 349.969C165.536 349.838 165.516 349.725 165.463 349.631C165.409 349.537 165.295 349.449 165.12 349.367C164.946 349.279 164.684 349.185 164.334 349.085C163.868 348.947 163.503 348.802 163.241 348.648C162.986 348.488 162.809 348.308 162.709 348.108C162.617 347.902 162.585 347.668 162.613 347.405C162.659 346.96 162.86 346.615 163.215 346.367C163.571 346.114 164.049 346.018 164.65 346.081C165.056 346.124 165.389 346.235 165.649 346.414C165.915 346.588 166.114 346.805 166.245 347.065C166.383 347.32 166.461 347.594 166.481 347.887L165.649 347.857C165.63 347.678 165.577 347.517 165.491 347.375C165.405 347.227 165.285 347.107 165.13 347.015C164.976 346.916 164.787 346.855 164.561 346.831C164.205 346.794 163.935 346.835 163.751 346.955C163.568 347.075 163.465 347.241 163.442 347.454C163.425 347.617 163.449 347.755 163.513 347.869C163.583 347.978 163.703 348.076 163.871 348.163C164.039 348.244 164.268 348.325 164.557 348.406C165.055 348.547 165.438 348.695 165.706 348.85C165.975 349.004 166.156 349.178 166.249 349.372C166.343 349.565 166.376 349.793 166.348 350.056C166.316 350.363 166.201 350.616 166.002 350.817C165.811 351.012 165.562 351.15 165.257 351.232C164.957 351.314 164.622 351.336 164.253 351.297ZM171.922 352.141C171.409 352.087 170.971 351.943 170.61 351.709C170.249 351.475 169.973 351.177 169.783 350.816C169.601 350.448 169.514 350.038 169.524 349.583L170.375 349.616C170.383 349.952 170.451 350.244 170.577 350.491C170.703 350.738 170.884 350.934 171.122 351.08C171.366 351.226 171.667 351.317 172.023 351.355C172.336 351.388 172.606 351.375 172.834 351.317C173.061 351.258 173.24 351.157 173.369 351.012C173.504 350.868 173.584 350.684 173.607 350.458C173.629 350.252 173.598 350.065 173.514 349.898C173.438 349.726 173.269 349.559 173.007 349.399C172.752 349.233 172.366 349.056 171.848 348.869C171.349 348.684 170.954 348.497 170.664 348.308C170.38 348.12 170.181 347.906 170.067 347.666C169.959 347.427 169.923 347.142 169.958 346.81C169.997 346.435 170.119 346.115 170.324 345.852C170.536 345.584 170.816 345.388 171.164 345.267C171.512 345.139 171.915 345.099 172.372 345.147C172.86 345.198 173.269 345.336 173.6 345.561C173.932 345.779 174.184 346.059 174.357 346.4C174.53 346.74 174.62 347.117 174.627 347.529L173.776 347.496C173.767 347.223 173.704 346.976 173.589 346.755C173.479 346.529 173.315 346.344 173.096 346.201C172.877 346.057 172.602 345.968 172.27 345.933C171.857 345.89 171.518 345.956 171.253 346.13C170.989 346.299 170.84 346.542 170.806 346.861C170.785 347.068 170.813 347.245 170.893 347.392C170.979 347.534 171.142 347.672 171.381 347.804C171.621 347.931 171.969 348.078 172.426 348.246C172.968 348.443 173.392 348.655 173.697 348.883C174.009 349.106 174.221 349.349 174.332 349.614C174.45 349.879 174.492 350.172 174.458 350.491C174.417 350.879 174.282 351.206 174.051 351.473C173.821 351.733 173.523 351.924 173.156 352.043C172.79 352.156 172.378 352.189 171.922 352.141ZM177.504 352.69C177.047 352.642 176.658 352.493 176.336 352.244C176.014 351.996 175.78 351.667 175.633 351.26C175.487 350.846 175.441 350.376 175.496 349.85C175.552 349.318 175.694 348.868 175.923 348.5C176.151 348.132 176.449 347.859 176.815 347.683C177.182 347.506 177.594 347.442 178.05 347.49C178.507 347.538 178.893 347.686 179.209 347.934C179.531 348.183 179.765 348.512 179.912 348.919C180.059 349.327 180.105 349.797 180.049 350.329C179.993 350.854 179.851 351.304 179.622 351.679C179.394 352.047 179.096 352.319 178.73 352.496C178.369 352.673 177.961 352.738 177.504 352.69ZM177.583 351.939C178.04 351.987 178.41 351.861 178.695 351.562C178.986 351.258 179.162 350.818 179.223 350.242C179.283 349.666 179.202 349.202 178.98 348.85C178.764 348.492 178.428 348.289 177.972 348.241C177.515 348.193 177.141 348.321 176.849 348.626C176.558 348.924 176.383 349.361 176.322 349.937C176.262 350.513 176.342 350.98 176.564 351.338C176.786 351.691 177.126 351.891 177.583 351.939ZM181.79 353.026C181.502 352.996 181.275 352.896 181.11 352.727C180.944 352.558 180.878 352.311 180.912 351.985L181.514 346.26L182.303 346.343L181.708 352.002C181.697 352.103 181.714 352.183 181.758 352.245C181.809 352.301 181.885 352.334 181.985 352.345L182.417 352.39L182.344 353.085L181.79 353.026ZM184.92 353.469C184.488 353.424 184.124 353.278 183.827 353.032C183.537 352.786 183.327 352.461 183.199 352.055C183.071 351.649 183.035 351.18 183.091 350.648C183.147 350.117 183.279 349.665 183.489 349.295C183.699 348.925 183.971 348.65 184.307 348.47C184.648 348.291 185.035 348.224 185.466 348.269C185.798 348.304 186.094 348.408 186.354 348.581C186.615 348.748 186.801 348.966 186.912 349.237L187.162 346.853L187.951 346.936L187.25 353.6L186.537 353.525L186.588 352.772C186.422 353.026 186.19 353.217 185.892 353.344C185.594 353.464 185.27 353.506 184.92 353.469ZM185.158 352.735C185.452 352.766 185.708 352.717 185.924 352.588C186.146 352.459 186.325 352.263 186.46 351.999C186.596 351.729 186.684 351.406 186.723 351.03C186.764 350.642 186.746 350.305 186.668 350.018C186.591 349.732 186.456 349.506 186.265 349.34C186.08 349.169 185.841 349.068 185.547 349.037C185.109 348.991 184.741 349.12 184.444 349.424C184.153 349.722 183.977 350.16 183.917 350.735C183.857 351.305 183.938 351.769 184.159 352.127C184.387 352.487 184.72 352.689 185.158 352.735Z" fill="#605B5E"/>
<path d="M239.679 325.929C240.742 315.816 241.273 310.759 244.745 307.947C248.217 305.136 253.274 305.667 263.388 306.73L324.172 313.119C334.286 314.182 339.342 314.713 342.154 318.185C344.966 321.657 344.434 326.714 343.371 336.828L340.067 368.261C339.004 378.375 338.473 383.432 335.001 386.243C331.529 389.055 326.472 388.523 316.358 387.461L255.574 381.072C245.46 380.009 240.404 379.477 237.592 376.005C234.78 372.533 235.312 367.476 236.375 357.363L239.679 325.929Z" fill="#F8F8F8"/>
<path d="M259.15 341.11L260.655 326.79L261.91 326.922L260.405 341.242L259.15 341.11ZM260.036 339.951C259.113 339.854 258.331 339.609 257.689 339.216C257.048 338.813 256.565 338.301 256.24 337.681C255.927 337.052 255.779 336.342 255.797 335.552L257.884 335.658C257.898 336.147 257.995 336.569 258.174 336.924C258.354 337.28 258.616 337.567 258.962 337.788C259.309 337.998 259.739 338.13 260.254 338.184C260.694 338.23 261.075 338.216 261.397 338.142C261.721 338.056 261.974 337.915 262.158 337.717C262.352 337.521 262.465 337.267 262.498 336.956C262.53 336.656 262.487 336.391 262.37 336.162C262.254 335.922 262.008 335.69 261.63 335.466C261.263 335.243 260.708 335.005 259.964 334.754C259.065 334.431 258.346 334.106 257.805 333.778C257.276 333.452 256.908 333.077 256.703 332.654C256.499 332.22 256.43 331.698 256.494 331.086C256.563 330.432 256.784 329.875 257.158 329.416C257.532 328.945 258.034 328.607 258.663 328.402C259.293 328.187 260.032 328.123 260.879 328.212C261.77 328.306 262.509 328.546 263.097 328.934C263.687 329.31 264.129 329.796 264.425 330.391C264.731 330.987 264.884 331.648 264.883 332.375L262.796 332.269C262.795 331.857 262.715 331.485 262.555 331.154C262.394 330.823 262.157 330.554 261.843 330.347C261.528 330.141 261.135 330.012 260.663 329.963C260.062 329.9 259.575 329.99 259.203 330.232C258.842 330.466 258.639 330.802 258.592 331.242C258.561 331.542 258.604 331.802 258.722 332.02C258.852 332.229 259.091 332.428 259.44 332.616C259.79 332.794 260.29 332.993 260.939 333.213C261.913 333.543 262.673 333.9 263.218 334.282C263.776 334.655 264.155 335.075 264.355 335.541C264.567 335.997 264.644 336.504 264.586 337.061C264.515 337.737 264.276 338.309 263.869 338.776C263.474 339.233 262.945 339.568 262.283 339.78C261.632 339.983 260.883 340.04 260.036 339.951ZM269.689 341.014C268.659 340.906 267.853 340.583 267.27 340.044C266.687 339.495 266.318 338.784 266.16 337.91L268.217 337.996C268.3 338.341 268.477 338.62 268.747 338.833C269.03 339.036 269.407 339.162 269.879 339.212C270.726 339.301 271.393 339.046 271.879 338.446C272.377 337.837 272.708 336.798 272.873 335.33L273.169 335.458C272.834 336.063 272.387 336.499 271.828 336.765C271.279 337.033 270.64 337.128 269.911 337.052C269.16 336.973 268.511 336.742 267.966 336.359C267.432 335.967 267.035 335.464 266.774 334.851C266.513 334.238 266.424 333.54 266.506 332.757C266.595 331.91 266.849 331.199 267.267 330.625C267.686 330.05 268.223 329.63 268.88 329.362C269.548 329.096 270.295 329.007 271.121 329.094C272.129 329.2 272.938 329.507 273.546 330.015C274.166 330.514 274.588 331.188 274.814 332.036C275.05 332.885 275.107 333.889 274.985 335.047C274.883 336.023 274.704 336.899 274.449 337.675C274.194 338.451 273.849 339.103 273.413 339.632C272.979 340.151 272.451 340.534 271.828 340.784C271.218 341.023 270.505 341.1 269.689 341.014ZM270.469 335.451C270.909 335.497 271.299 335.452 271.639 335.314C271.99 335.166 272.275 334.936 272.492 334.623C272.721 334.3 272.861 333.902 272.91 333.43C272.96 332.958 272.917 332.541 272.781 332.18C272.647 331.808 272.429 331.509 272.128 331.282C271.827 331.044 271.452 330.902 271.001 330.854C270.561 330.808 270.17 330.865 269.828 331.024C269.497 331.184 269.227 331.432 269.018 331.768C268.81 332.094 268.682 332.492 268.632 332.964C268.583 333.425 268.627 333.837 268.763 334.198C268.898 334.559 269.112 334.847 269.404 335.063C269.696 335.278 270.051 335.407 270.469 335.451ZM275.265 341.34L275.502 339.087L277.851 339.334L277.614 341.587L275.265 341.34ZM278.879 341.72C278.976 340.797 279.189 340.006 279.519 339.347C279.85 338.677 280.351 338.089 281.022 337.585C281.694 337.07 282.579 336.594 283.677 336.156C284.221 335.931 284.66 335.728 284.994 335.546C285.328 335.364 285.576 335.168 285.739 334.957C285.903 334.736 286.002 334.464 286.036 334.143C286.07 333.821 286.03 333.535 285.915 333.284C285.801 333.023 285.613 332.808 285.348 332.639C285.095 332.471 284.764 332.366 284.357 332.323C283.702 332.254 283.162 332.387 282.737 332.722C282.323 333.047 282.037 333.549 281.879 334.226L279.736 333.871C279.969 332.692 280.501 331.804 281.334 331.208C282.179 330.603 283.25 330.368 284.548 330.505C285.384 330.593 286.088 330.813 286.658 331.166C287.23 331.508 287.644 331.953 287.901 332.5C288.168 333.049 288.267 333.661 288.196 334.337C288.135 334.916 287.981 335.404 287.733 335.801C287.496 336.199 287.133 336.552 286.646 336.858C286.17 337.155 285.535 337.463 284.743 337.781C283.746 338.186 282.987 338.6 282.465 339.022C281.945 339.434 281.65 339.815 281.58 340.165L287.518 340.789L287.326 342.608L278.879 341.72ZM289.058 342.79L290.259 331.365L292.318 331.582L291.613 338.292L295.544 334.784L298.087 335.051L294.348 338.27L297.296 343.655L294.979 343.412L292.868 339.351L291.366 340.641L291.117 343.006L289.058 342.79Z" fill="#1F1A1D"/>
<path d="M252.508 360.459L255.611 354.047L256.7 354.162L258.402 361.079L257.52 360.986L257.053 359.02L254.256 358.726L253.39 360.552L252.508 360.459ZM254.611 357.966L256.863 358.203L256.081 354.809L254.611 357.966ZM259.955 361.242L258.666 356.077L259.529 356.168L260.537 360.487L262.42 356.471L263.284 356.562L260.95 361.346L259.955 361.242ZM265.309 361.918C264.84 361.869 264.445 361.72 264.123 361.471C263.807 361.223 263.576 360.895 263.429 360.487C263.289 360.074 263.247 359.604 263.302 359.079C263.357 358.553 263.496 358.106 263.718 357.737C263.947 357.369 264.238 357.096 264.592 356.918C264.953 356.734 265.362 356.667 265.818 356.715C266.25 356.76 266.621 356.903 266.931 357.145C267.242 357.38 267.467 357.701 267.608 358.108C267.755 358.516 267.799 358.998 267.741 359.555L267.716 359.789L264.102 359.41C264.078 359.945 264.176 360.36 264.398 360.655C264.627 360.952 264.957 361.122 265.388 361.168C265.714 361.202 265.988 361.155 266.21 361.026C266.439 360.892 266.607 360.704 266.715 360.462L267.553 360.617C267.375 361.047 267.086 361.387 266.687 361.636C266.294 361.88 265.835 361.974 265.309 361.918ZM264.175 358.715L266.925 359.004C266.938 358.518 266.835 358.15 266.614 357.899C266.4 357.649 266.109 357.504 265.739 357.466C265.358 357.425 265.029 357.511 264.754 357.723C264.486 357.928 264.293 358.259 264.175 358.715ZM268.454 362.135L268.977 357.16L269.672 357.233L269.577 358.495L269.505 358.459C269.612 358.04 269.779 357.745 270.006 357.572C270.24 357.394 270.532 357.324 270.882 357.361L271.37 357.412L271.292 358.163L270.813 358.113C270.563 358.086 270.348 358.111 270.169 358.187C269.997 358.258 269.858 358.379 269.751 358.551C269.652 358.718 269.587 358.939 269.558 359.214L269.243 362.218L268.454 362.135ZM272.871 362.713C272.358 362.659 271.961 362.497 271.679 362.227C271.404 361.958 271.289 361.611 271.333 361.185C271.378 360.76 271.538 360.438 271.814 360.22C272.09 360.003 272.506 359.872 273.061 359.829L274.86 359.686C274.904 359.267 274.837 358.944 274.658 358.716C274.486 358.489 274.202 358.355 273.808 358.314C273.464 358.277 273.184 358.327 272.967 358.462C272.751 358.592 272.59 358.796 272.485 359.076L271.656 358.923C271.8 358.463 272.065 358.108 272.452 357.858C272.846 357.602 273.324 357.503 273.887 357.563C274.525 357.63 274.994 357.863 275.294 358.261C275.595 358.653 275.712 359.165 275.645 359.797L275.429 361.853C275.417 361.965 275.428 362.049 275.46 362.103C275.499 362.151 275.566 362.18 275.659 362.19L275.856 362.211L275.783 362.905C275.758 362.909 275.717 362.908 275.66 362.902C275.604 362.902 275.544 362.899 275.481 362.893C275.256 362.869 275.075 362.815 274.938 362.731C274.808 362.642 274.72 362.519 274.673 362.362C274.627 362.199 274.617 361.992 274.644 361.742L274.736 361.77C274.669 361.979 274.543 362.161 274.355 362.319C274.169 362.47 273.945 362.583 273.684 362.656C273.424 362.724 273.153 362.743 272.871 362.713ZM273.019 362.027C273.351 362.061 273.639 362.028 273.884 361.928C274.136 361.821 274.335 361.665 274.484 361.459C274.632 361.247 274.721 361.003 274.75 360.728L274.788 360.371L273.142 360.502C272.797 360.529 272.552 360.601 272.407 360.719C272.269 360.831 272.189 360.99 272.167 361.197C272.143 361.428 272.205 361.618 272.354 361.767C272.51 361.91 272.732 361.996 273.019 362.027ZM278.289 364.706C277.932 364.669 277.616 364.575 277.341 364.426C277.065 364.277 276.842 364.083 276.671 363.843C276.5 363.604 276.395 363.337 276.357 363.042L277.189 363.072C277.239 363.312 277.352 363.507 277.526 363.658C277.705 363.816 277.986 363.915 278.368 363.955C278.818 364.003 279.172 363.948 279.429 363.792C279.692 363.636 279.842 363.376 279.88 363.013L279.965 362.206C279.819 362.457 279.606 362.646 279.327 362.775C279.047 362.904 278.745 362.951 278.42 362.917C278 362.873 277.636 362.73 277.326 362.489C277.022 362.248 276.796 361.936 276.646 361.554C276.503 361.172 276.456 360.746 276.505 360.277C276.555 359.801 276.69 359.395 276.908 359.057C277.128 358.713 277.408 358.455 277.749 358.282C278.096 358.109 278.476 358.045 278.889 358.088C279.24 358.125 279.544 358.239 279.802 358.431C280.067 358.623 280.241 358.863 280.324 359.15L280.407 358.362L281.158 358.441L280.671 363.078C280.63 363.465 280.508 363.788 280.304 364.045C280.099 364.308 279.826 364.494 279.486 364.604C279.144 364.72 278.745 364.754 278.289 364.706ZM278.536 362.17C278.962 362.215 279.318 362.103 279.606 361.836C279.894 361.563 280.068 361.17 280.128 360.658C280.171 360.314 280.145 360.014 280.052 359.757C279.966 359.495 279.82 359.287 279.615 359.133C279.416 358.973 279.173 358.877 278.885 358.847C278.447 358.801 278.091 358.916 277.815 359.19C277.546 359.459 277.385 359.85 277.331 360.364C277.277 360.877 277.356 361.296 277.569 361.622C277.788 361.943 278.111 362.125 278.536 362.17ZM283.88 363.87C283.411 363.821 283.016 363.672 282.694 363.423C282.378 363.175 282.147 362.847 282 362.439C281.86 362.026 281.818 361.556 281.873 361.031C281.928 360.505 282.067 360.058 282.289 359.689C282.518 359.321 282.809 359.048 283.163 358.87C283.524 358.686 283.933 358.619 284.389 358.667C284.821 358.712 285.192 358.855 285.502 359.097C285.813 359.332 286.038 359.653 286.179 360.06C286.326 360.467 286.37 360.95 286.311 361.507L286.287 361.741L282.673 361.362C282.649 361.897 282.747 362.312 282.969 362.607C283.198 362.903 283.528 363.074 283.959 363.119C284.285 363.154 284.559 363.107 284.781 362.978C285.01 362.844 285.178 362.656 285.286 362.414L286.124 362.569C285.946 362.999 285.657 363.339 285.258 363.588C284.865 363.832 284.406 363.926 283.88 363.87ZM282.746 360.667L285.496 360.956C285.509 360.47 285.406 360.102 285.185 359.851C284.971 359.601 284.68 359.456 284.31 359.417C283.929 359.377 283.6 359.463 283.325 359.674C283.057 359.88 282.864 360.211 282.746 360.667ZM291.757 364.736C291.243 364.682 290.806 364.538 290.445 364.304C290.084 364.07 289.808 363.772 289.618 363.411C289.435 363.043 289.349 362.633 289.359 362.178L290.209 362.211C290.218 362.547 290.286 362.839 290.412 363.086C290.537 363.333 290.719 363.529 290.957 363.675C291.201 363.821 291.501 363.912 291.858 363.95C292.171 363.983 292.441 363.97 292.669 363.912C292.896 363.853 293.075 363.752 293.204 363.607C293.339 363.463 293.419 363.279 293.442 363.053C293.464 362.847 293.433 362.66 293.349 362.493C293.273 362.321 293.103 362.154 292.842 361.994C292.587 361.828 292.201 361.651 291.683 361.464C291.184 361.279 290.789 361.092 290.499 360.903C290.215 360.715 290.016 360.501 289.902 360.261C289.794 360.022 289.758 359.737 289.793 359.405C289.832 359.03 289.954 358.71 290.159 358.447C290.371 358.179 290.651 357.983 290.999 357.862C291.347 357.734 291.75 357.694 292.207 357.742C292.695 357.793 293.104 357.931 293.435 358.156C293.766 358.374 294.019 358.654 294.192 358.995C294.364 359.335 294.455 359.712 294.462 360.124L293.611 360.091C293.602 359.818 293.539 359.571 293.423 359.35C293.314 359.124 293.15 358.939 292.931 358.796C292.712 358.652 292.437 358.563 292.105 358.529C291.692 358.485 291.353 358.551 291.088 358.725C290.824 358.894 290.675 359.137 290.641 359.456C290.62 359.663 290.648 359.84 290.728 359.988C290.814 360.129 290.977 360.267 291.216 360.399C291.456 360.526 291.804 360.673 292.261 360.841C292.803 361.038 293.227 361.25 293.532 361.478C293.844 361.701 294.055 361.944 294.167 362.209C294.284 362.474 294.326 362.767 294.293 363.086C294.252 363.474 294.117 363.801 293.886 364.068C293.656 364.328 293.358 364.519 292.991 364.638C292.625 364.751 292.213 364.784 291.757 364.736ZM296.701 365.218C296.188 365.164 295.791 365.002 295.509 364.732C295.234 364.463 295.119 364.115 295.163 363.69C295.208 363.264 295.368 362.943 295.644 362.725C295.92 362.507 296.336 362.377 296.891 362.334L298.69 362.191C298.734 361.772 298.667 361.448 298.488 361.221C298.316 360.994 298.033 360.86 297.638 360.818C297.294 360.782 297.014 360.832 296.797 360.967C296.581 361.096 296.42 361.301 296.315 361.581L295.487 361.427C295.63 360.968 295.895 360.613 296.282 360.362C296.676 360.107 297.154 360.008 297.717 360.067C298.356 360.134 298.825 360.367 299.124 360.766C299.425 361.158 299.542 361.67 299.475 362.302L299.259 364.357C299.247 364.47 299.258 364.553 299.29 364.607C299.329 364.656 299.396 364.685 299.489 364.695L299.687 364.716L299.614 365.41C299.588 365.414 299.547 365.413 299.491 365.407C299.434 365.407 299.374 365.404 299.311 365.397C299.086 365.374 298.905 365.32 298.768 365.236C298.639 365.146 298.55 365.023 298.504 364.866C298.457 364.703 298.447 364.497 298.474 364.246L298.566 364.275C298.499 364.483 298.373 364.666 298.185 364.823C297.999 364.975 297.775 365.087 297.514 365.161C297.254 365.229 296.983 365.248 296.701 365.218ZM296.85 364.531C297.181 364.566 297.469 364.533 297.714 364.432C297.966 364.326 298.165 364.17 298.314 363.964C298.462 363.752 298.551 363.508 298.58 363.233L298.618 362.876L296.972 363.007C296.627 363.034 296.382 363.106 296.237 363.224C296.099 363.336 296.019 363.495 295.997 363.701C295.973 363.933 296.035 364.123 296.184 364.272C296.34 364.414 296.562 364.501 296.85 364.531ZM301.331 365.591C301.044 365.56 300.817 365.461 300.651 365.291C300.485 365.122 300.42 364.875 300.454 364.549L301.056 358.824L301.844 358.907L301.249 364.567C301.239 364.667 301.256 364.748 301.3 364.809C301.351 364.865 301.426 364.898 301.526 364.909L301.958 364.954L301.885 365.649L301.331 365.591ZM304.64 366.052C304.171 366.003 303.775 365.854 303.453 365.605C303.138 365.357 302.906 365.029 302.759 364.621C302.619 364.208 302.577 363.738 302.632 363.213C302.688 362.687 302.826 362.24 303.049 361.871C303.277 361.503 303.568 361.23 303.922 361.052C304.283 360.868 304.692 360.8 305.149 360.848C305.581 360.894 305.951 361.037 306.261 361.279C306.572 361.514 306.798 361.835 306.938 362.242C307.085 362.649 307.129 363.132 307.071 363.689L307.046 363.923L303.433 363.543C303.408 364.079 303.507 364.494 303.729 364.789C303.957 365.085 304.287 365.256 304.719 365.301C305.044 365.336 305.318 365.288 305.54 365.16C305.769 365.026 305.938 364.838 306.046 364.596L306.883 364.751C306.705 365.181 306.417 365.521 306.017 365.77C305.625 366.013 305.165 366.108 304.64 366.052ZM303.506 362.849L306.256 363.138C306.269 362.652 306.165 362.284 305.945 362.033C305.731 361.783 305.439 361.638 305.07 361.599C304.688 361.559 304.36 361.645 304.084 361.856C303.816 362.062 303.623 362.393 303.506 362.849Z" fill="#605B5E"/>
</g>
<defs>
<filter id="filter0_d_10583_15713" x="-44.3261" y="-1.60097" width="460.121" height="477.751" filterUnits="userSpaceOnUse" color-interpolation-filters="sRGB">
<feFlood flood-opacity="0" result="BackgroundImageFix"/>
<feColorMatrix in="SourceAlpha" type="matrix" values="0 0 0 0 0 0 0 0 0 0 0 0 0 0 0 0 0 0 127 0" result="hardAlpha"/>
<feOffset/>
<feGaussianBlur stdDeviation="10.7861"/>
<feComposite in2="hardAlpha" operator="out"/>
<feColorMatrix type="matrix" values="0 0 0 0 0 0 0 0 0 0 0 0 0 0 0 0 0 0 0.06 0"/>
<feBlend mode="normal" in2="BackgroundImageFix" result="effect1_dropShadow_10583_15713"/>
<feBlend mode="normal" in="SourceGraphic" in2="effect1_dropShadow_10583_15713" result="shape"/>
</filter>
<clipPath id="clip0_10583_15713">
<rect width="334.369" height="188.756" fill="white" transform="translate(33.8809 82.644) rotate(6)"/>
</clipPath>
</defs>
</svg>
