<svg width="80" height="80" viewBox="0 0 80 80" fill="none" xmlns="http://www.w3.org/2000/svg">
<rect width="80" height="80" rx="12" fill="white"/>
<path d="M43.4553 22.8884L46.9749 29.9858C47.4548 30.9737 48.7347 31.9214 49.8146 32.1029L56.1939 33.1715C60.2734 33.8571 61.2333 36.8412 58.2936 39.785L53.3342 44.7854C52.4943 45.6323 52.0343 47.2655 52.2943 48.4349L53.7141 54.625C54.834 59.5246 52.2543 61.4199 47.9548 58.8592L41.9754 55.2904C40.8956 54.6452 39.1158 54.6452 38.0159 55.2904L32.0365 58.8592C27.757 61.4199 25.1573 59.5044 26.2772 54.625L27.697 48.4349C27.957 47.2655 27.497 45.6323 26.6571 44.7854L21.6977 39.785C18.778 36.8412 19.7179 33.8571 23.7974 33.1715L30.1767 32.1029C31.2366 31.9214 32.5165 30.9737 32.9964 29.9858L36.516 22.8884C38.4358 19.0372 41.5555 19.0372 43.4553 22.8884Z" stroke="#312A2F" stroke-width="2" stroke-linecap="round" stroke-linejoin="round"/>
</svg>
