<svg width="24" height="24" viewBox="0 0 24 24" fill="none" xmlns="http://www.w3.org/2000/svg">
<path d="M16 3.38462V2M19.6306 4.36369L20.6081 3.38462M20.6176 8H22" stroke="#383035" stroke-linecap="round" stroke-linejoin="round"/>
<path d="M22 12C22 16.714 22 19.0711 20.5355 20.5355C19.0711 22 16.714 22 12 22C7.28595 22 4.92893 22 3.46447 20.5355C2 19.0711 2 16.714 2 12C2 7.28595 2 4.92893 3.46447 3.46447C4.92893 2 7.28595 2 12 2" stroke="#383035" stroke-linecap="round" stroke-linejoin="round"/>
<path d="M12 7.5C11.7239 7.5 11.5 7.72386 11.5 8C11.5 8.27614 11.7239 8.5 12 8.5V8V7.5ZM15.5 11.9704C15.5 12.2465 15.7239 12.4704 16 12.4704C16.2761 12.4704 16.5 12.2465 16.5 11.9704H16H15.5ZM12 8V8.5H14V8V7.5H12V8ZM16 9.98519H15.5V11.9704H16H16.5V9.98519H16ZM14 8V8.5C14.4854 8.5 14.7996 8.50105 15.0311 8.53195C15.2487 8.56098 15.3169 8.60795 15.3549 8.64559L15.7071 8.29072L16.0593 7.93586C15.8044 7.68277 15.4905 7.58438 15.1634 7.54073C14.8503 7.49895 14.4574 7.5 14 7.5V8ZM16 9.98519H16.5C16.5 9.53151 16.5011 9.14059 16.4589 8.82893C16.4146 8.50251 16.3148 8.18946 16.0593 7.93586L15.7071 8.29072L15.3549 8.64559C15.3923 8.68272 15.4389 8.74898 15.4679 8.96316C15.4989 9.19209 15.5 9.50304 15.5 9.98519H16ZM15.7071 8.29072L15.33 7.9624C12.4156 11.3098 9.09492 12.6679 6.50422 13.1931C5.20693 13.4561 4.09248 13.51 3.30526 13.4986C2.91188 13.4929 2.60099 13.4708 2.39078 13.4506C2.2857 13.4405 2.20587 13.4308 2.15356 13.4239C2.12741 13.4204 2.10815 13.4177 2.09606 13.4159C2.09001 13.415 2.08577 13.4143 2.08335 13.4139C2.08214 13.4137 2.08139 13.4136 2.0811 13.4136C2.08095 13.4136 2.08092 13.4135 2.08101 13.4136C2.08105 13.4136 2.08121 13.4136 2.08123 13.4136C2.08141 13.4136 2.08162 13.4137 2 13.907C1.91838 14.4002 1.91865 14.4003 1.91895 14.4003C1.91909 14.4004 1.91942 14.4004 1.91969 14.4005C1.92025 14.4006 1.92092 14.4007 1.92172 14.4008C1.9233 14.401 1.92535 14.4014 1.92787 14.4018C1.93291 14.4026 1.9398 14.4036 1.94853 14.4049C1.96597 14.4075 1.99072 14.4111 2.02248 14.4153C2.086 14.4237 2.1776 14.4347 2.29499 14.446C2.5297 14.4686 2.8678 14.4923 3.29071 14.4985C4.13608 14.5108 5.3234 14.4528 6.70289 14.1732C9.46574 13.6131 12.9986 12.1631 16.0842 8.61905L15.7071 8.29072Z" fill="#383035"/>
</svg>
